<?xml version="1.0" standalone="no"?>
<!DOCTYPE svg PUBLIC "-//W3C//DTD SVG 1.1//EN" "http://www.w3.org/Graphics/SVG/1.1/DTD/svg11.dtd" >
<svg xmlns="http://www.w3.org/2000/svg">
<metadata>
This is a custom SVG webfont generated by Font Squirrel.
Copyright   : Copyright 20082009 OurType  Peter Verheul wwwourtypecom
Designer    : Peter VerheulHet lettertype is afkomstig van OurType BVBA en is een aangepaste versie van de OT Versa auteur Peter Verheulwwwourtypecom
Foundry     : OurType  Peter Verheul
Foundry URL : httpwwwourtypecom
</metadata>
<defs>
<font id="RijksoverheidSerifRegular" horiz-adv-x="1212" >
<font-face units-per-em="2048" ascent="1516" descent="-532" />
<missing-glyph horiz-adv-x="456" />
<glyph unicode=" "  horiz-adv-x="456" />
<glyph unicode="&#x09;" horiz-adv-x="456" />
<glyph unicode="&#xa0;" horiz-adv-x="456" />
<glyph unicode="!" horiz-adv-x="710" d="M207 109.5q0 56.5 40 96.5t96 40t96 -40t40 -96.5t-40 -96.5t-96 -40t-96 40t-40 96.5zM248 711q0 80 33.5 312t33.5 320q0 104 -32 189q152 37 315 37l-70 -164l-77 -436q-23 -135 -23 -289q0 -152 35 -270q-94 0 -154.5 78t-60.5 223z" />
<glyph unicode="&#x22;" horiz-adv-x="929" d="M197 1499h200l-8 -182q-4 -94 -49 -316h-86q-47 221 -51 314zM539 1499h200l-6 -182q-4 -94 -49 -316h-86q-47 221 -49 314z" />
<glyph unicode="#" d="M35 379l14 119h285l63 520h-282l14 119h283l51 413h121l-52 -413h320l51 413h119l-51 -413h280l-16 -119h-279l-61 -520h276l-16 -119h-276l-52 -414h-120l49 414h-318l-51 -414h-121l51 414h-282zM449 494h325l64 526h-324z" />
<glyph unicode="$" d="M145 18v338h68l16 -57q25 -96 98.5 -140t207.5 -44h38l5 536l-172 99q-221 127 -222 354q0 154 109.5 260t286.5 137l2 166h75l-2 -156q18 2 56 2q190 0 325 -55l-20 -328h-68l-10 48q-23 106 -78 147t-174 41q-6 0 -15 -1t-16 -1l-2 -508l144 -72q264 -137 264 -360 q0 -168 -115 -289t-297 -153v-168h-78v157q-16 -2 -49 -2q-238 0 -377 49zM373 1147q0 -141 182 -236l23 -12l2 455q-96 -18 -151.5 -74.5t-55.5 -132.5zM651 127q96 23 152.5 82t56.5 147q0 131 -207 254z" />
<glyph unicode="%" horiz-adv-x="1660" d="M96 1087q0 193 94.5 302.5t253.5 109.5q150 0 236 -94t86 -270q0 -182 -98.5 -297t-248 -115t-236.5 95t-87 269zM268 -78l1002 1675l86 -49l-1002 -1675zM268 1106q0 -289 160 -289q74 0 120 77t46 222q0 289 -160 289q-74 0 -120 -77t-46 -222zM895 346q0 190 94 300 t252 110q150 0 237 -94.5t87 -268.5q0 -182 -98.5 -296.5t-248 -114.5t-236.5 94t-87 270zM1067 365q0 -291 158 -291q76 0 121 77.5t45 221.5q0 291 -158 291q-76 0 -121 -77t-45 -222z" />
<glyph unicode="&#x26;" horiz-adv-x="1437" d="M115 322q0 125 78.5 232.5t224.5 174.5v2l-64 64q-139 137 -139 303t124 285.5t290 119.5q154 0 256 -95t102 -237q0 -135 -90 -250.5t-225 -183.5v-2l389 -362q78 145 78 354l-148 37v51q129 37 242 37q98 0 184 -23v-45q-137 -35 -137 -84q0 -219 -131 -395 q147 -121 319 -199q-16 -59 -56 -96t-91 -37q-72 0 -170 84l-100 88q-188 -197 -473 -196q-217 0 -340 100.5t-123 272.5zM311 354q0 -125 81 -198.5t218 -73.5q221 0 344 135l-465 440q-80 -45 -129 -128t-49 -175zM393 1135q0 -135 101 -236l100 -100q100 49 158.5 142 t58.5 204.5t-56.5 175t-148.5 63.5q-86 0 -149.5 -73.5t-63.5 -175.5z" />
<glyph unicode="'" horiz-adv-x="589" d="M197 1507h200l-8 -180q-4 -94 -49 -315h-86q-47 221 -51 311z" />
<glyph unicode="(" horiz-adv-x="698" d="M129 485q0 231 54.5 456.5t133 375t157.5 242t132 92.5q43 0 60 -43q-154 -113 -268.5 -416t-114.5 -655q0 -229 44 -431t113.5 -330t145.5 -203t143 -75q-49 -66 -141 -65q-154 0 -306.5 296.5t-152.5 755.5z" />
<glyph unicode=")" horiz-adv-x="698" d="M-29 1587q49 66 142 66q154 0 306 -296t152 -757q0 -231 -54 -456.5t-133 -375t-158 -241.5t-132 -92q-43 0 -59 43q154 111 268.5 414t114.5 657q0 229 -44 431t-114 330t-145.5 202.5t-143.5 74.5z" />
<glyph unicode="*" horiz-adv-x="1167" d="M162 1153q0 35 33.5 60.5t95.5 25.5q70 0 147.5 -27.5t128.5 -66.5l2 2q-53 190 -135 305q45 76 90 76q53 0 88 -58.5t35 -166.5q0 -109 -26 -168l2 -2q166 106 254 223q61 -18 81.5 -38t20.5 -50q0 -68 -111.5 -128.5t-238.5 -60.5v-2q150 -123 291 -172 q0 -76 -18.5 -101.5t-57.5 -25.5q-63 0 -151.5 88t-112.5 189h-2q-68 -182 -74 -328q-47 -20 -84 -20q-27 0 -47.5 27.5t-20.5 66.5q0 63 56.5 151t132.5 144v2q-178 0 -336 -33q-43 53 -43 88z" />
<glyph unicode="+" d="M113 467v119h432v465h125v-465h432v-119h-432v-467h-125v467h-432z" />
<glyph unicode="," horiz-adv-x="641" d="M113 -291q143 152 143 340l-80 103q63 102 148 102q57 0 92 -36t35 -97q0 -150 -94.5 -277t-180.5 -151z" />
<glyph unicode="-" horiz-adv-x="708" d="M68 539l45 172l538 22l-33 -168z" />
<glyph unicode="." horiz-adv-x="641" d="M184 109.5q0 56.5 40 96.5t96.5 40t95.5 -40t39 -96.5t-39 -96.5t-95.5 -40t-96.5 40t-40 96.5z" />
<glyph unicode="/" horiz-adv-x="757" d="M49 -539l549 2220l115 -24l-547 -2220z" />
<glyph unicode="0" horiz-adv-x="1208" d="M129 514q0 291 144.5 456t361.5 165q193 0 322.5 -144.5t129.5 -410.5q0 -293 -144 -458t-361 -165q-193 0 -323 145.5t-130 411.5zM348 541q0 -221 68.5 -338t183.5 -117q119 0 193.5 123t74.5 344t-68.5 337t-183.5 116q-119 0 -193.5 -122t-74.5 -343z" />
<glyph unicode="1" horiz-adv-x="829" d="M129 936v76q162 100 338 100q12 0 40 -1t38 -1q-23 -106 -23 -182v-815l152 -35v-35q-106 -63 -291 -63q-131 0 -215 20v45q70 18 120 67.5t50 102.5v729z" />
<glyph unicode="2" horiz-adv-x="1030" d="M72 143l442 402q160 141 160 258q0 76 -53.5 122t-141.5 46q-172 0 -336 -170q-25 53 -24 127q0 78 100 134t291 56q168 0 272.5 -81t104.5 -193q0 -109 -57.5 -195t-202.5 -200l-375 -293v-2h188q272 0 498 79q14 -43 14 -100q0 -76 -53 -110.5t-186 -34.5 q-51 0 -272.5 6t-358.5 6z" />
<glyph unicode="3" horiz-adv-x="1009" d="M57 -244q0 33 13 64q145 -90 309 -90q123 0 220 79.5t97 204.5t-98 197t-274 72q-47 0 -95 -13l-24 127l92 4q160 8 275.5 106.5t115.5 235.5q0 104 -68.5 166t-183.5 62q-152 0 -317 -160q-25 61 -25 119q0 76 101.5 132t283.5 56q184 0 297 -95t113 -243 q0 -127 -102.5 -246.5t-245.5 -166.5v-2q158 0 257 -83t99 -231q0 -180 -168 -317t-367 -137q-305 -1 -305 159z" />
<glyph unicode="4" horiz-adv-x="1126" d="M82 139q66 291 276.5 585t429.5 398l101 -22q-18 -215 -19 -434v-486h64q49 0 119 35q16 -33 16 -80q0 -115 -141 -115h-58v-170q0 -137 -35.5 -194t-111.5 -57q-45 0 -84 22q47 100 47 211v191h-598zM246 180h442v459q0 178 14 264l-4 4q-131 -102 -271 -323.5 t-181 -403.5z" />
<glyph unicode="5" horiz-adv-x="1009" d="M63 -240q0 35 11 62q143 -92 307 -92q139 0 243.5 93t104.5 234q0 133 -98.5 211t-268.5 78q-115 0 -206 -31l39 799q74 -10 215 -10q264 0 528 29q10 -33 10 -68q0 -68 -47 -99.5t-168 -31.5h-401l-19 -453q88 18 164 19q195 0 319 -106.5t124 -289.5q0 -209 -168 -358 t-392 -149q-297 -1 -297 163z" />
<glyph unicode="6" horiz-adv-x="1142" d="M100 532q0 221 65.5 409.5t173 309.5t243 188.5t278.5 67.5q131 0 185.5 -25.5t54.5 -76.5q0 -47 -29 -90q-102 59 -237 59q-152 0 -292.5 -129t-193.5 -354l2 -2q111 63 238 63q211 0 336 -118.5t125 -323.5q0 -238 -148.5 -395.5t-337.5 -157.5q-197 0 -330 156.5 t-133 418.5zM305 571q0 -233 78 -359t197 -126q106 0 183 96.5t77 270.5q0 180 -87 271t-233 91q-111 0 -196 -31q-19 -107 -19 -213z" />
<glyph unicode="7" horiz-adv-x="993" d="M61 1118q236 -18 537 -18q137 0 320 14l36 -63l-252 -547q-221 -481 -366 -910q-172 0 -172 91q0 53 80 225t295 588l223 430h-531q-96 0 -133 42t-37 148z" />
<glyph unicode="8" horiz-adv-x="1110" d="M88 322q0 133 90 246.5t254 176.5v3l-133 100q-145 109 -145 282q0 143 126 257t308 114q176 0 288.5 -95t112.5 -245q0 -111 -75.5 -216t-194.5 -167v-4l160 -119q82 -59 115.5 -122.5t33.5 -153.5q0 -172 -146.5 -297t-334.5 -125q-209 0 -334 103.5t-125 261.5z M272 344q0 -115 83 -186.5t208 -71.5q109 0 192 70.5t83 183.5q0 70 -41 127t-135 133l-132 94q-119 -59 -188.5 -151.5t-69.5 -198.5zM330 1165q0 -76 36.5 -132t131.5 -122l123 -88q86 55 140 141.5t54 180.5q0 102 -66.5 164.5t-177.5 62.5q-106 0 -173.5 -61.5 t-67.5 -145.5z" />
<glyph unicode="9" horiz-adv-x="1142" d="M68 -250q0 12 12 60q135 -80 287 -80q137 0 278 146.5t162 346.5l-2 4q-109 -59 -242 -59q-201 0 -331 123t-130 321q0 215 140.5 359.5t330.5 144.5q205 0 339.5 -151.5t134.5 -427.5q0 -217 -63.5 -400.5t-166 -299.5t-228.5 -179.5t-255 -63.5q-145 0 -205.5 38 t-60.5 118zM301 643q0 -162 89 -257t220 -95q102 0 213 39q12 76 13 164q0 246 -83 368.5t-200 122.5q-104 0 -178 -94t-74 -248z" />
<glyph unicode=":" horiz-adv-x="641" d="M184 109.5q0 56.5 40 96.5t96.5 40t95.5 -40t39 -96.5t-39 -96.5t-95.5 -40t-96.5 40t-40 96.5zM184 990.5q0 56.5 40 95t96.5 38.5t95.5 -38.5t39 -95t-39 -96.5t-95.5 -40t-96.5 40t-40 96.5z" />
<glyph unicode=";" horiz-adv-x="641" d="M113 -291q143 152 143 340l-80 103q63 102 148 102q57 0 92 -36t35 -97q0 -150 -94.5 -277t-180.5 -151zM184 990.5q0 56.5 40 95t96.5 38.5t95.5 -38.5t39 -95t-39 -96.5t-95.5 -40t-96.5 40t-40 96.5z" />
<glyph unicode="&#x3c;" d="M180 518l701 569l80 -98l-582 -467l584 -456l-84 -105z" />
<glyph unicode="=" d="M115 311v121h983v-121h-983zM115 621v122h983v-122h-983z" />
<glyph unicode="&#x3e;" d="M254 61l584 463l-584 461l84 102l696 -557l-698 -567z" />
<glyph unicode="?" horiz-adv-x="1013" d="M152 1346q0 100 97 162.5t292 62.5q186 0 294.5 -83t108.5 -222q0 -98 -73.5 -197.5t-292.5 -273.5l-142 -113q25 -127 88 -244q-37 -8 -59 -8q-70 0 -120 47t-50 123q0 63 32.5 118.5t123.5 137.5l151 139q131 117 131 240q0 94 -59.5 145.5t-167.5 51.5 q-88 0 -177 -63.5t-139 -154.5q-38 54 -38 132zM276 109.5q0 56.5 39 96.5t95.5 40t96.5 -40t40 -96.5t-40 -96.5t-96.5 -40t-95.5 40t-39 96.5z" />
<glyph unicode="@" horiz-adv-x="1953" d="M82 487q0 440 291 730t708 290q346 0 577.5 -223t231.5 -577q0 -311 -192.5 -528.5t-392.5 -217.5q-80 51 -117 113q-51 -47 -137 -79t-179 -32q-129 0 -211.5 74t-82.5 184q0 162 163.5 271.5t442.5 109.5v64q0 182 -47 243.5t-160 61.5q-199 0 -350 -152q-8 35 -9 70 q0 236 383 235q178 0 277.5 -84t99.5 -227q0 -31 -5 -125t-5 -110l-6 -379q27 -70 82 -113q117 47 214 220t97 382q0 324 -201.5 516.5t-488.5 192.5q-360 0 -597 -254t-237 -633q0 -360 175.5 -559t400.5 -199q178 0 348 62q10 -18 10 -47q0 -57 -96 -103.5t-254 -46.5 q-291 0 -512 238.5t-221 631.5zM778 256q0 -72 46 -113t137 -41q119 0 223 64v328q-188 0 -297 -69t-109 -169z" />
<glyph unicode="A" horiz-adv-x="1261" d="M-33 0v45q55 18 85 50t52 100l463 1292l164 20l430 -1403l121 -38v-50q-96 -39 -231 -39q-137 0 -244 23v45q114 24 113 95q0 15 -5 32l-79 291h-471l-109 -365l139 -30v-52q-127 -39 -258 -39q-86 0 -170 23zM403 588h402l-184 674h-3z" />
<glyph unicode="B" horiz-adv-x="1245" d="M100 1415v51q170 33 467 33q502 0 502 -346q0 -131 -101.5 -240.5t-238.5 -134.5v-4q184 0 295 -95t111 -257q0 -193 -167 -323t-433 -130q-272 0 -422 31v45q135 33 135 172v1149zM446 106q63 -8 123 -8q145 0 244.5 86t99.5 217q0 297 -393 297h-74v-592zM446 811 q190 0 300 85t110 237q0 115 -78 177t-227 62q-47 0 -105 -6v-555z" />
<glyph unicode="C" horiz-adv-x="1259" d="M100 698q0 356 208 584.5t495 228.5q225 0 346 -63l-19 -326h-63l-10 43q-27 109 -88.5 156t-184.5 47q-184 0 -319 -174t-135 -465q0 -305 127 -465t307 -160q127 0 198.5 43t108.5 138l25 55h61l-22 -307q-139 -72 -406 -72q-268 0 -448.5 193.5t-180.5 543.5z" />
<glyph unicode="D" horiz-adv-x="1488" d="M100 1415v51q195 33 473 33q375 0 595.5 -183t220.5 -515q0 -373 -246 -598.5t-604 -225.5q-262 0 -426 23v45q68 20 101.5 60t33.5 116v1145zM449 123q84 -8 114 -8q256 0 428 173t172 474q0 283 -167 442.5t-427 159.5q-57 0 -120 -8v-1233z" />
<glyph unicode="E" horiz-adv-x="1093" d="M100 1432v53h881l-18 -344h-68l-8 43q-14 90 -56.5 127t-146.5 37h-233v-537h237q133 0 162 86l16 55h64v-440h-64l-12 53q-23 119 -119 119h-284v-547h278q92 0 142.5 31t84.5 96l25 43h66l-50 -307h-884v53q72 18 103.5 58.5t31.5 115.5v1141z" />
<glyph unicode="F" horiz-adv-x="1013" d="M100 1434v51h881l-16 -344h-68l-8 43q-12 90 -56.5 127t-146.5 37h-235v-560h235q133 0 166 117l14 51h66v-454h-66l-12 61q-18 100 -127 101h-276v-560l170 -36v-52q-131 -39 -277 -39q-141 0 -231 23v45q135 35 135 170v1153z" />
<glyph unicode="G" horiz-adv-x="1380" d="M100 684q0 377 212 602t519 225q240 0 379 -65l-24 -324h-66l-8 45q-25 106 -96.5 153.5t-210.5 47.5q-199 0 -337 -172t-138 -461q0 -303 124 -467t318 -164q135 0 246 48v452l-148 39v51q129 37 267 37q129 0 215 -24v-43q-135 -35 -135 -162v-531q-72 0 -111 16.5 t-70 59.5q-113 -86 -329 -86q-260 0 -433.5 196.5t-173.5 526.5z" />
<glyph unicode="H" horiz-adv-x="1538" d="M100 1411v51q143 37 273 37q121 0 213 -24v-43q-135 -37 -135 -164v-424h639v528l-150 39v51q143 37 274 37q121 0 216 -24v-43q-139 -37 -140 -164v-1164l150 -36v-52q-137 -39 -273 -39q-119 0 -213 23v45q135 37 136 170v487h-639v-598l147 -36v-52q-137 -39 -274 -39 q-119 0 -211 23v45q135 37 135 170v1157z" />
<glyph unicode="I" horiz-adv-x="696" d="M100 1411v51q139 37 269 37q125 0 217 -24v-43q-74 -20 -104.5 -59.5t-30.5 -108.5v-1160l147 -36v-52q-131 -39 -268 -39q-127 0 -217 23v45q135 39 135 178v1149z" />
<glyph unicode="J" horiz-adv-x="677" d="M68 -240q80 49 130 156t50 254v1202l-148 39v51q139 37 269 37q111 0 217 -24v-43q-72 -20 -103.5 -58.5t-31.5 -111.5v-1057q0 -240 -81 -368t-190 -128q-61 0 -112 21v30z" />
<glyph unicode="K" horiz-adv-x="1298" d="M100 1411v51q127 37 267 37q123 0 219 -24v-43q-74 -20 -104.5 -58.5t-30.5 -116.5v-1153l147 -36v-52q-137 -39 -279 -39q-129 0 -206 23v45q74 23 104.5 64t30.5 114v1149zM457 745v9l555 628v2l-127 29v49q127 37 254 37q96 0 161 -20v-45q-98 -47 -170 -123 l-466 -523l415 -526q57 -76 112.5 -117t145.5 -82v-47q-76 -51 -166 -51q-86 0 -147 40t-143 155z" />
<glyph unicode="L" horiz-adv-x="1050" d="M100 1411v51q143 37 264 37t222 -24v-43q-74 -27 -104.5 -63t-30.5 -107v-1125h262q190 0 254 129l24 53h60l-54 -319h-884v53q135 31 135 166v1153z" />
<glyph unicode="M" horiz-adv-x="1814" d="M45 0v43q127 37 137 137l103 1192l-135 41v68q121 16 317 16h84l367 -1132h2l354 1132h100q174 0 283 -16v-68l-144 -35l103 -1284l135 -26v-52q-86 -39 -227 -39q-154 0 -256 23v45q138 33 137 161v15l-57 1061h-5l-415 -1296l-92 -13l-420 1307l-2 -2l-74 -1172 l154 -38v-52q-131 -39 -271 -39q-80 0 -178 23z" />
<glyph unicode="N" horiz-adv-x="1472" d="M100 1413v68q123 16 256 16h88l650 -1067l4 2v948l-150 37v49q131 39 234 39q113 0 196 -24v-43q-80 -25 -106.5 -68t-26.5 -151v-1223l-110 -27l-738 1217l-2 -2v-1080l142 -36v-52q-104 -39 -213 -39q-133 0 -211 23v45q76 20 105.5 64.5t29.5 140.5v1122z" />
<glyph unicode="O" horiz-adv-x="1523" d="M100 702q0 354 210 582.5t495 228.5q264 0 441 -192.5t177 -509.5q0 -389 -203.5 -619.5t-498.5 -230.5q-266 0 -443.5 201.5t-177.5 539.5zM332 730q0 -292 120.5 -455.5t292.5 -163.5q184 0 317.5 169t133.5 488q0 289 -121 442.5t-295 153.5q-180 0 -314 -171 t-134 -463z" />
<glyph unicode="P" horiz-adv-x="1224" d="M100 1415v51q188 33 482 33q281 0 428 -114.5t147 -327.5q0 -221 -169 -374t-390 -153q-78 0 -147 35v-461l170 -36v-52q-123 -39 -283 -39q-139 0 -225 23v45q135 37 135 170v1151zM449 686q74 -18 149 -18q150 0 246 99t96 265q0 158 -100.5 248t-274.5 90 q-55 0 -116 -6v-678z" />
<glyph unicode="Q" horiz-adv-x="1523" d="M100 702q0 348 208 579.5t497 231.5q266 0 442 -196.5t176 -505.5q0 -326 -149.5 -541t-394.5 -284v-2q90 -33 184 -86l154 -88q170 -98 249 -99q66 0 125 10v-43q-74 -123 -217 -122q-143 0 -321 125l-404 286q-246 37 -397.5 231.5t-151.5 503.5zM332 730 q0 -292 120.5 -453.5t292.5 -161.5q184 0 317.5 168t133.5 485q0 289 -120 439.5t-296 150.5q-180 0 -314 -168t-134 -460z" />
<glyph unicode="R" horiz-adv-x="1277" d="M100 1415v51q201 35 465 35q520 0 520 -395q0 -170 -89 -282.5t-246 -161.5l329 -443q86 -115 217 -158v-45q-76 -51 -178 -51q-78 0 -132 36t-118 130l-307 467h-110v-494l147 -36v-52q-131 -39 -266 -39q-125 0 -219 23v45q70 20 102.5 60t32.5 116v1147zM451 711h90 q145 0 238 93t93 267q0 143 -85 222t-236 79q-39 0 -100 -8v-653z" />
<glyph unicode="S" horiz-adv-x="1052" d="M82 18v338h68l16 -57q25 -98 90.5 -141t196.5 -43t218 68.5t87 172.5q0 143 -203 262l-221 132q-213 127 -213 354q0 174 141 291.5t348 117.5q193 0 326 -55l-21 -328h-67l-10 48q-23 106 -78 147t-174 41q-121 0 -198 -65.5t-77 -153.5q0 -145 172 -236l232 -127 q246 -131 246 -360q0 -184 -155 -319.5t-366 -135.5q-219 0 -358 49z" />
<glyph unicode="T" horiz-adv-x="1081" d="M-2 1151v340q240 -6 559 -6q297 0 528 18v-352h-71l-10 53q-20 158 -150 158h-211v-1258l172 -36v-52q-131 -39 -280 -39q-147 0 -232 23v45q137 41 137 170v1147h-174q-145 0 -182 -158l-14 -53h-72z" />
<glyph unicode="U" horiz-adv-x="1480" d="M66 1411v51q141 37 266 37q119 0 221 -20v-47q-76 -18 -106.5 -58.5t-30.5 -126.5v-780q0 -162 92 -256t251 -94t252 102.5t93 308.5v844l-150 39v51q139 39 250 39q92 0 199 -26v-43q-76 -27 -105.5 -65t-29.5 -112v-700q0 -287 -147.5 -437.5t-387.5 -150.5 q-252 0 -385 120t-133 341v944z" />
<glyph unicode="V" horiz-adv-x="1224" d="M-14 1415v49q115 37 231 37q113 0 215 -20v-45q-81 -23 -81 -93q0 -24 9 -53l279 -956h4l303 1038l-147 41v49q133 39 252 39q82 0 159 -22v-45q-94 -35 -133 -162l-413 -1286l-95 -6l-456 1394z" />
<glyph unicode="W" horiz-adv-x="1861" d="M-43 1413v49q121 39 240 39q125 0 206 -20v-45q-79 -17 -78 -87q0 -21 7 -46l254 -941h2l248 1010l-123 39v51q125 37 254 37q121 0 188 -24v-43q-50 -18 -49 -75q0 -21 6 -46l225 -946h2l258 1005l-143 45v49q127 37 246 37q84 0 151 -22v-43q-86 -55 -116 -164 l-383 -1284l-90 -8l-326 1232h-2l-322 -1224l-90 -8l-436 1392z" />
<glyph unicode="X" horiz-adv-x="1210" d="M-27 0v45q121 39 177 127l350 576l-348 632l-125 31v51q100 39 221 39q113 0 223 -26v-43q-41 -10 -58.5 -35t-6.5 -49l221 -443l252 467l-136 39v51q121 37 246 37q100 0 180 -24v-43q-86 -25 -149 -127l-307 -506l399 -699l121 -34v-50q-100 -33 -217 -32 q-111 0 -228 16v43q43 8 60 39q8 14 8 31q0 18 -10 39l-260 471l-289 -523l152 -32v-54q-135 -31 -273 -30q-111 0 -203 16z" />
<glyph unicode="Y" horiz-adv-x="1161" d="M-31 1415v49q119 37 236 37q106 0 219 -20v-45q-83 -23 -83 -83q0 -24 13 -55l262 -499h2l283 573l-139 41v49q125 37 242 37q90 0 161 -20v-45q-45 -18 -70.5 -49t-60.5 -99l-352 -624v-558l149 -36v-52q-135 -39 -274 -39q-121 0 -213 23v45q137 33 137 168v440 l-385 725z" />
<glyph unicode="Z" horiz-adv-x="1079" d="M45 57l737 1291h-409q-139 0 -191 -160l-16 -51h-76l29 348h909l21 -51l-734 -1297h414q109 0 158 37t84 129l14 45h76l-39 -348h-956z" />
<glyph unicode="[" horiz-adv-x="641" d="M236 -549v2200h370l-18 -99h-221v-2005h239l-18 -96h-352z" />
<glyph unicode="\" horiz-adv-x="757" d="M49 1657l115 24l549 -2220l-117 -24z" />
<glyph unicode="]" horiz-adv-x="641" d="M37 -549l18 98h224v2005h-242l18 97h355v-2200h-373z" />
<glyph unicode="^" d="M47 348l569 701l555 -699l-102 -84l-459 586l-465 -584z" />
<glyph unicode="_" horiz-adv-x="1167" d="M0 -182h1167v-119h-1167v119z" />
<glyph unicode="`" horiz-adv-x="1050" d="M356 1538q0 47 34 68.5t116 21.5q23 -98 85 -221t124 -190l-19 -15q-84 0 -212 122t-128 214z" />
<glyph unicode="a" horiz-adv-x="1044" d="M78 223q0 162 164 271.5t442 109.5v64q0 182 -47 243.5t-160 61.5q-199 0 -350 -152q-8 35 -8 70q0 238 383 237q178 0 277.5 -83.5t99.5 -229.5q0 -31 -5.5 -125t-5.5 -110l-6 -379q25 -68 92 -119q-55 -68 -157 -119q-66 41 -109 115q-51 -49 -137 -81t-178 -32 q-129 0 -212 73.5t-83 184.5zM279 260q0 -74 46 -115t136 -41q119 0 223 64v328q-188 0 -296.5 -68t-108.5 -168z" />
<glyph unicode="b" horiz-adv-x="1218" d="M68 1583v51q150 43 280 43h80l-14 -131v-528q123 106 293 106q184 0 303.5 -130t119.5 -361q0 -311 -173 -485.5t-425 -174.5q-160 0 -333 37q23 139 22 228v1282zM412 123q61 -18 123 -19q176 0 285.5 121t109.5 363q0 178 -86 279.5t-211 101.5q-123 0 -221 -56v-790z " />
<glyph unicode="c" horiz-adv-x="940" d="M88 502q0 283 156.5 452.5t392.5 169.5q252 0 252 -137q0 -57 -27 -121q-135 106 -272 107q-125 0 -212 -117t-87 -311q0 -201 94 -309.5t236 -108.5q141 0 266 92q12 -23 12 -57q0 -88 -90 -142.5t-252 -54.5q-195 0 -332 149.5t-137 387.5z" />
<glyph unicode="d" horiz-adv-x="1189" d="M88 477q0 303 161 475t398 172q96 0 160 -14v410l-158 63v51q150 43 289 43h76l-15 -131v-1339q29 -80 88 -135q-59 -53 -163 -109q-72 57 -111 139q-57 -57 -142 -95t-157 -38q-182 0 -304 139.5t-122 368.5zM291 514q0 -182 82 -287.5t198 -105.5q147 0 240 76v772 q-74 27 -172 26q-156 0 -252 -124t-96 -357z" />
<glyph unicode="e" horiz-adv-x="1056" d="M88 500q0 289 146.5 458.5t343.5 169.5q188 0 295.5 -116.5t107.5 -321.5q0 -90 -2 -149h-690q0 -190 98 -301t248 -111q182 0 330 100q8 -25 8 -61q0 -82 -110.5 -142.5t-291.5 -60.5q-205 0 -344 147.5t-139 387.5zM295 664h500q0 166 -64.5 251.5t-173.5 85.5 q-96 0 -179 -101t-83 -236z" />
<glyph unicode="f" horiz-adv-x="696" d="M102 946v82l129 51v172q-2 188 118 307t331 119q231 0 231 -112q0 -37 -12 -78q-141 49 -311 49q-74 0 -123 -67.5t-49 -186.5q0 -109 8 -211h299l-25 -125h-276v-848l147 -35v-45q-113 -39 -286 -38q-104 0 -177 20v39q53 18 89 53t36 74v780h-129z" />
<glyph unicode="g" horiz-adv-x="1105" d="M61 -313q0 92 61.5 161.5t160.5 98.5v2q-137 49 -138 182q0 66 47.5 126t114.5 83v4q-86 35 -147.5 122t-61.5 202q0 195 136.5 328.5t328.5 133.5q70 0 145.5 -24.5t106.5 -52.5q33 31 92.5 53t112.5 22t100 -14l-16 -153q-117 25 -250 24v-2q59 -45 96 -114.5 t37 -139.5q0 -199 -140 -328t-333 -129q-78 0 -145 29q-29 -16 -51.5 -49t-22.5 -64q0 -106 149 -106l326 2h9q141 0 218 -66q80 -68 80 -196q0 -168 -164.5 -288t-406.5 -120q-211 0 -328 76t-117 197zM238 -272q0 -76 79.5 -127.5t219.5 -51.5q162 0 265 67t103 155 q0 143 -172 143h-377q-51 -25 -84.5 -77t-33.5 -109zM303 682q0 -141 65.5 -217t159.5 -76q111 0 182.5 84t71.5 248q0 141 -66.5 216t-166.5 75q-102 0 -174 -91.5t-72 -238.5z" />
<glyph unicode="h" horiz-adv-x="1284" d="M82 1583v51q145 43 280 43h74l-12 -131v-559q133 129 340 129q152 0 239 -93t87 -271v-654l122 -35v-45q-100 -39 -247 -38q-94 0 -150 20v39q84 41 84 156v444q0 315 -237 315q-139 0 -238 -71v-785l131 -35v-45q-111 -39 -270 -38q-104 0 -174 20v39q123 47 122 127 v1354z" />
<glyph unicode="i" horiz-adv-x="634" d="M84 1018v49q154 45 278 45h74l-12 -127v-887l131 -35v-45q-111 -39 -270 -38q-104 0 -174 20v39q123 47 122 127v788zM207 1458q0 57 38 98t95 41q53 0 88 -34.5t35 -92.5q0 -59 -38 -101t-93 -42q-53 0 -89 37t-36 94z" />
<glyph unicode="j" horiz-adv-x="602" d="M20 -477q84 0 143.5 94t59.5 262v1075l-149 64v49q158 45 280 45h76l-14 -131v-1049q0 -502 -264 -501q-88 0 -132 55v37zM199 1458q0 57 36.5 98t96.5 41q51 0 86 -34.5t35 -92.5q0 -59 -37 -101t-94 -42q-53 0 -88 37t-35 94z" />
<glyph unicode="k" horiz-adv-x="1097" d="M80 1583v51q150 43 280 43h78l-14 -131v-934l129 111q98 84 170 190.5t72 184.5q55 18 123 18q49 0 94 -20q-6 -82 -86 -193.5t-232 -218.5l-82 -57l359 -439q94 -111 174 -110v-49q-74 -49 -174.5 -49t-165.5 88l-381 501v-471l123 -37v-45q-115 -37 -264 -36 q-104 0 -177 20v39q53 18 90 53t37 74v1354z" />
<glyph unicode="l" horiz-adv-x="624" d="M82 1583v51q145 43 280 43h74l-12 -131v-1448l131 -35v-45q-111 -39 -270 -38q-104 0 -174 20v39q51 18 86.5 53t35.5 74v1354z" />
<glyph unicode="m" horiz-adv-x="1902" d="M82 1018v51q150 43 280 43h56v-127q135 131 344 131q82 0 154.5 -40t107.5 -103q57 57 160.5 100t199.5 43q152 0 238 -93t86 -278v-647l123 -35v-45q-100 -39 -248 -38q-94 0 -149 20v39q84 39 84 156v454q0 305 -238 305q-125 0 -225 -53q14 -74 14 -174v-629l121 -35 v-45q-100 -39 -244 -38q-92 0 -151 20v39q84 39 84 156v428q0 188 -54.5 259.5t-169.5 71.5q-141 0 -231 -71v-785l131 -35v-45q-117 -39 -270 -38q-104 0 -174 20v39q51 18 86.5 53t35.5 74v788z" />
<glyph unicode="n" horiz-adv-x="1284" d="M82 1018v51q150 43 280 43h56v-127q131 131 346 131q150 0 238 -94t88 -270v-654l122 -35v-45q-98 -39 -245 -38q-90 0 -152 20v39q84 39 84 156v444q0 315 -233 315q-147 0 -242 -71v-785l131 -35v-45q-111 -39 -270 -38q-104 0 -174 20v39q51 18 86.5 53t35.5 74v788z " />
<glyph unicode="o" horiz-adv-x="1243" d="M94 502q0 279 162 453.5t387 174.5q219 0 363.5 -149.5t144.5 -390.5q0 -276 -164 -451.5t-383 -175.5t-364.5 145.5t-145.5 393.5zM305 524q0 -203 90 -314.5t223 -111.5q129 0 224.5 124t95.5 347q0 197 -91 311.5t-221 114.5t-225.5 -125t-95.5 -346z" />
<glyph unicode="p" horiz-adv-x="1220" d="M70 1018v51q150 43 280 43h56v-108q57 53 140 85.5t161 32.5q184 0 305 -129t121 -360q0 -311 -166 -485.5t-404 -174.5q-86 0 -149 29v-457l153 -32v-48q-115 -37 -295 -36q-104 0 -174 20v39q51 16 87 50t36 77v1339zM412 121q55 -16 149 -17q166 0 268.5 118 t102.5 358q0 182 -89 284.5t-216 102.5t-215 -54v-792z" />
<glyph unicode="q" horiz-adv-x="1185" d="M88 481q0 297 161 469t404 172q104 0 174 -32l127 45h54l-13 -197v-1393l135 -32v-48q-115 -37 -274 -36q-106 0 -176 20v39q51 16 87 50t36 77v485q-53 -53 -141.5 -92t-161.5 -39q-176 0 -294 138t-118 374zM291 514q0 -186 79 -289.5t193 -103.5q72 0 140.5 22.5 t101.5 51.5v774q-66 29 -160 28q-162 0 -258 -123.5t-96 -359.5z" />
<glyph unicode="r" horiz-adv-x="784" d="M82 1018v51q150 43 280 43h56v-164h2l65 72q96 102 205 102q123 0 123 -100q0 -70 -39 -139q-68 53 -143 53q-106 0 -207 -96v-742l162 -35v-45q-113 -39 -289 -38q-117 0 -186 20v39q51 18 86.5 53t35.5 74v788z" />
<glyph unicode="s" horiz-adv-x="862" d="M74 156q0 59 22 96q156 -147 328 -148q96 0 147.5 41t51.5 104.5t-43 106.5t-158 93l-117 49q-209 90 -209 288q0 143 114 243.5t292 100.5q262 0 262 -145q0 -45 -12 -98q-129 90 -267 90q-106 0 -162.5 -41t-56.5 -104.5t40 -104.5t143 -80l124 -49 q125 -49 178.5 -116.5t53.5 -174.5q0 -139 -121 -240.5t-313 -101.5q-297 1 -297 191z" />
<glyph unicode="t" horiz-adv-x="722" d="M88 948v76l252 250l78 10l-8 -211h307l-17 -125h-299l-4 -295q-2 -98 -2 -272q0 -254 142 -254q98 0 174 59l22 -8q-14 -209 -252 -209q-143 0 -210.5 79t-67.5 247q0 20 8 342l6 311h-129z" />
<glyph unicode="u" horiz-adv-x="1239" d="M78 1020v49q154 45 260 45h78l-15 -131v-528q0 -176 55.5 -250t172.5 -74q125 0 227 68v755l-135 66v49q158 45 264 45h78l-14 -131v-788q20 -49 88 -123q-55 -59 -158 -109q-78 53 -111 135q-51 -47 -143 -86t-193 -39q-322 0 -321 383v598z" />
<glyph unicode="v" horiz-adv-x="964" d="M-47 1055v57h446v-57l-133 -56l252 -739h2l260 731l-133 64v57h359v-57l-66 -54l-416 -1030l-78 -4l-397 1020z" />
<glyph unicode="w" horiz-adv-x="1556" d="M-47 1055v57h453v-57l-136 -56l209 -749h2l232 745l-129 60v57h397v-57l-68 -51l209 -752h2l242 739l-133 64v57h358v-57l-61 -51l-393 -1033l-99 -4l-258 860h-2l-268 -856l-107 -4l-350 1018z" />
<glyph unicode="x" horiz-adv-x="993" d="M-23 0v39q94 31 144 106l280 404l-284 448l-103 58v57h420v-57l-102 -43l192 -359l205 346l-125 56v57h359v-57l-72 -51l-291 -420l315 -486l99 -35v-45q-100 -39 -217 -38q-100 0 -170 20v39q67 22 67 59q0 14 -10 29l-211 334l-221 -365l127 -33v-45q-117 -39 -244 -38 q-84 0 -158 20z" />
<glyph unicode="y" horiz-adv-x="929" d="M-66 -389q45 -10 105 -10q82 0 175 93t163 271l39 105l-369 917l-90 68v57h430v-57l-125 -56l248 -712h2l221 704l-131 64v57h350v-57l-57 -51l-330 -910q-127 -354 -255 -509.5t-232 -155.5q-74 0 -109 41t-35 141z" />
<glyph unicode="z" horiz-adv-x="909" d="M39 35l575 934h-274q-133 0 -168 -101l-20 -57h-70l24 291l748 -2l18 -43l-567 -926h289q86 0 128 20.5t64 67.5l37 78h64l-33 -297h-797z" />
<glyph unicode="{" horiz-adv-x="641" d="M-72 522v51q156 31 239 93.5t83 144.5v575q0 125 68.5 204t181.5 79q100 0 100 -86q-221 0 -221 -172v-582q0 -117 -92 -191.5t-275 -88.5v-2q367 -27 367 -277v-561q0 -190 235 -190q0 -39 -28.5 -63.5t-79.5 -24.5q-119 0 -187.5 66.5t-68.5 172.5v557q0 184 -322 295z " />
<glyph unicode="|" horiz-adv-x="698" d="M287 -616v2334h127v-2334h-127z" />
<glyph unicode="}" horiz-adv-x="641" d="M33 1579q0 39 27.5 63.5t78.5 24.5q121 0 189.5 -66.5t68.5 -173.5v-557q0 -184 322 -297v-51q-156 -29 -239 -91t-83 -144v-576q0 -125 -68.5 -203.5t-181.5 -78.5q-100 0 -100 86q221 0 221 172v581q0 117 92.5 192t274.5 89v2q-367 27 -367 276v562q1 190 -235 190z " />
<glyph unicode="~" d="M260 614q0 55 40 89t116 34q63 0 162 -30l110 -29q61 -20 113 -21q43 0 77.5 36t34.5 79q57 -51 58 -123q0 -59 -47 -98t-117 -39t-156 23l-114 34q-66 20 -115 21q-41 0 -73 -29t-32 -67q-57 44 -57 120z" />
<glyph unicode="&#xa1;" horiz-adv-x="710" d="M117 -4l69 164l78 436q23 135 23 289q0 152 -35 270q94 0 154.5 -78t60.5 -223q0 -82 -34 -314.5t-34 -318.5q0 -104 33 -188q-151 -37 -315 -37zM236 1455q0 56 39.5 95t96 39t95.5 -39t39 -95t-39 -96t-95.5 -40t-96 40t-39.5 96z" />
<glyph unicode="&#xa2;" d="M199 502q0 268 143 438t365 182v199h75v-197q217 -8 217 -137q0 -57 -28 -121q-94 74 -189 99v-836q115 16 215 90q10 -23 11 -57q0 -68 -59.5 -120t-166.5 -69v-188h-75v182q-12 -2 -39 -2q-197 0 -333 149.5t-136 387.5zM401 545q0 -193 85 -301.5t221 -116.5v846h-7 q-127 0 -213 -116.5t-86 -311.5z" />
<glyph unicode="&#xa3;" d="M156 0v53q74 18 104.5 58.5t30.5 115.5l22 461h-135v92l141 27l13 342q4 158 137 262.5t322 104.5q295 0 294 -97q0 -49 -24 -106q-129 74 -309 73q-102 0 -167 -61t-69 -170l-14 -344h413l-16 -123h-401l-17 -551h334q92 0 142.5 31t86.5 96l23 43h66l-50 -307h-927z " />
<glyph unicode="&#xa4;" d="M172 463l104 100q-82 111 -81 250q0 141 84 248l-107 102l84 84l104 -106q113 84 246 84q143 0 248 -84l102 106l84 -84l-104 -102q84 -111 84 -249t-82 -249l102 -100l-84 -84l-102 102q-106 -82 -248 -82q-137 0 -246 84l-104 -104zM324 813q0 -117 82.5 -200 t199.5 -83t200 83t83 200t-83 200t-200 83t-199.5 -83t-82.5 -200z" />
<glyph unicode="&#xa5;" d="M14 1415v49q119 37 236 37q104 0 219 -20v-45q-117 -33 -70 -138l252 -499h2l275 573l-142 41v49q127 37 244 37q88 0 160 -20v-45q-43 -18 -68.5 -49t-60.5 -99l-338 -604h379v-96h-389v-117h389v-96h-389v-269l149 -36v-52q-135 -39 -268 -39q-123 0 -215 23v45 q137 33 137 168v160h-371v96h371v117h-371v96h357l-363 696z" />
<glyph unicode="&#xa6;" horiz-adv-x="698" d="M287 352h127v-968h-127v968zM287 752v966h127v-966h-127z" />
<glyph unicode="&#xa7;" horiz-adv-x="1167" d="M164 983q0 211 148.5 365.5t359.5 154.5q174 0 309 -53l-20 -330h-70l-8 47q-20 102 -75.5 144.5t-152.5 42.5q-76 0 -130 -77t-54 -181q0 -133 174 -357l238 -305q145 -182 145 -399q0 -242 -170 -422t-387 -180q-176 0 -303 67v320h68l16 -58q27 -94 97.5 -143 t170.5 -49q82 0 144.5 79t62.5 208q0 186 -156 391l-249 332q-158 206 -158 403zM272 1012q0 -172 152 -373l254 -328q152 -205 151 -407q0 -86 -38.5 -173t-94.5 -145q66 0 145 130t79 294q0 193 -146 377l-229 295q-168 213 -168 381q0 221 143 319q-88 0 -168 -109 t-80 -261z" />
<glyph unicode="&#xa8;" horiz-adv-x="1050" d="M248 1438q0 47 32.5 79.5t79 32.5t79 -32.5t32.5 -79.5t-32.5 -79t-79 -32t-79 32t-32.5 79zM612 1438q0 47 33 79.5t79 32.5t79 -32.5t33 -79.5t-33 -79t-79 -32t-79 32t-33 79z" />
<glyph unicode="&#xa9;" horiz-adv-x="1982" d="M207 730.5q0 324.5 235.5 557t558.5 232.5q328 0 552.5 -223.5t224.5 -548t-235.5 -559t-560.5 -234.5t-550 225.5t-225 550zM334 739q0 -285 191.5 -484.5t467 -199.5t467 200t191.5 484q0 281 -192.5 480.5t-466 199.5t-466 -199.5t-192.5 -480.5zM606 745 q0 203 136.5 337.5t308.5 134.5q152 0 243 -52l-22 -196h-37l-12 37q-35 115 -187 114q-98 0 -173 -98t-75 -258q0 -164 74 -256t176 -92q150 0 187 114l12 37h37l-10 -190q-115 -63 -258 -64q-158 0 -279 121t-121 311z" />
<glyph unicode="&#xaa;" horiz-adv-x="737" d="M53 905q0 106 116 176t310 70v39q0 115 -32.5 154.5t-108.5 39.5q-137 0 -244 -102q-8 29 -8 57q0 152 274 152q133 0 204 -53.5t71 -151.5q0 -14 -3 -72.5t-3 -80.5l-6 -244q20 -41 65 -76q-33 -41 -125 -82q-45 25 -78 74q-33 -25 -98 -47.5t-121 -22.5 q-94 0 -153.5 48t-59.5 122zM213 930q0 -96 121 -96q82 0 145 34v209q-125 0 -195.5 -43t-70.5 -104z" />
<glyph unicode="&#xab;" horiz-adv-x="1050" d="M86 590l127 184q170 250 268 250q59 0 119 -43q-143 -117 -272 -283l-68 -88l111 -188q84 -139 198 -244q-72 -29 -135 -28q-98 0 -196 172zM500 590l127 184q172 250 268 250q59 0 119 -43q-150 -125 -275 -283l-67 -88l112 -188q84 -139 199 -244q-72 -29 -135 -28 q-98 0 -197 172z" />
<glyph unicode="&#xac;" d="M115 616v119h983v-456h-129v337h-854z" />
<glyph unicode="&#xad;" horiz-adv-x="708" d="M68 539l45 172l538 22l-33 -168z" />
<glyph unicode="&#xae;" horiz-adv-x="1982" d="M207 730.5q0 324.5 235.5 557t558.5 232.5q328 0 552.5 -223.5t224.5 -548t-235.5 -559t-560.5 -234.5t-550 225.5t-225 550zM334 739q0 -285 191.5 -484.5t467 -199.5t467 200t191.5 484q0 281 -192.5 480.5t-466 199.5t-466 -199.5t-192.5 -480.5zM645 1139v41 q135 25 352 24q160 0 245 -61.5t85 -165.5q0 -90 -57.5 -159.5t-151.5 -98.5l129 -170q82 -111 197 -148v-24q-55 -55 -137 -55q-113 0 -226 178l-102 162h-94v-250l94 -29v-29q-82 -31 -164 -30q-68 0 -164 22v33q80 23 80 104v631zM885 737h65q88 0 147.5 57.5t59.5 153.5 q0 74 -51 119t-137 45q-33 0 -84 -6v-369z" />
<glyph unicode="&#xaf;" horiz-adv-x="1050" d="M215 1343v138h621v-138h-621z" />
<glyph unicode="&#xb0;" horiz-adv-x="1026" d="M182 1182q0 137 98.5 236.5t233.5 99.5q137 0 235.5 -95.5t98.5 -236.5q0 -133 -100.5 -229.5t-235.5 -96.5t-232.5 94.5t-97.5 227.5zM301 1187q0 -91 64.5 -158.5t148.5 -67.5t149.5 66.5t65.5 156.5q0 94 -65.5 163.5t-149.5 69.5t-148.5 -69.5t-64.5 -160.5z" />
<glyph unicode="&#xb1;" d="M115 0v121h983v-121h-983zM115 616v119h430v318h127v-318h426v-119h-426v-337h-127v337h-430z" />
<glyph unicode="&#xb2;" horiz-adv-x="759" d="M53 831l299 240q131 106 131 203q0 59 -42 94t-117 35q-119 0 -226 -107q-18 37 -18 76q0 55 69.5 93t206.5 38q147 0 224 -53t77 -139q0 -150 -196 -289l-228 -160h156q162 0 309 37q12 -31 13 -68q0 -45 -36 -64t-124 -19q-33 0 -212 3t-276 3z" />
<glyph unicode="&#xb3;" horiz-adv-x="759" d="M82 831q0 29 20 60q115 -70 217 -70q82 0 137.5 37t55.5 90q0 51 -63.5 84t-188.5 33q-31 0 -74 -4l-16 92h61q104 -2 183.5 42t79.5 108q0 102 -148 102q-123 0 -217 -78q-18 31 -18 76q0 41 70.5 70.5t201.5 29.5q137 0 210 -48t73 -122q0 -70 -71 -127t-177 -76v-2 q129 0 198.5 -45t69.5 -118q0 -96 -103.5 -163t-254.5 -67q-246 0 -246 96z" />
<glyph unicode="&#xb4;" horiz-adv-x="1050" d="M336 1217q61 68 123.5 190.5t85.5 220.5q82 0 115.5 -21.5t33.5 -68.5q0 -92 -128 -214t-212 -122z" />
<glyph unicode="&#xb5;" horiz-adv-x="1239" d="M195 1096q82 18 153 18h76l-12 -131v-645q0 -111 53 -159t172 -48q127 0 229 68v755l-18 144q68 16 147 16h76l-14 -131v-745q0 -139 90 -140h86v-51q-78 -78 -196.5 -78t-157.5 129q-49 -45 -148.5 -85t-185.5 -40q-125 0 -180 58v-105q0 -160 20.5 -248t60 -122.5 t117.5 -49.5v-51q-68 -29 -168 -28q-92 0 -138 75.5t-46 259.5q0 78 4 230.5t4 253.5v708z" />
<glyph unicode="&#xb6;" horiz-adv-x="1167" d="M143 913q0 258 179.5 423t435.5 165q195 0 389 -31v-43q-70 -20 -104.5 -55t-34.5 -108v-1688l159 -45v-51q-164 -49 -338 -49q-133 0 -268 32v43q135 39 135 172v857q-74 -41 -180 -41q-162 0 -267.5 111t-105.5 308zM803 -467h100v1868h-100v-1868z" />
<glyph unicode="&#xb7;" horiz-adv-x="641" d="M186 576.5q0 56.5 40 96.5t96.5 40t95.5 -40t39 -96.5t-39 -96.5t-95.5 -40t-96.5 40t-40 96.5z" />
<glyph unicode="&#xb8;" horiz-adv-x="628" d="M117 -324q98 -61 190 -61q57 0 93 28.5t36 61.5q0 84 -141 84l39 225h80v-135q84 0 130 -37t46 -94q0 -94 -93.5 -170t-207.5 -76q-82 0 -127 46t-45 128z" />
<glyph unicode="&#xb9;" horiz-adv-x="759" d="M145 1382v62q115 53 279 53q49 0 70 -2q-14 -72 -15 -115v-530l178 -35v-18q-106 -63 -290 -64q-131 0 -215 21v28q170 39 170 170v443z" />
<glyph unicode="&#xba;" horiz-adv-x="888" d="M63 1081q0 182 120 295t284 113q154 0 255 -96.5t101 -245.5q0 -193 -119.5 -305.5t-276.5 -112.5t-260.5 97t-103.5 255zM244 1094q0 -125 55 -196t137 -71q86 0 147.5 77t61.5 226q0 123 -55 192t-139 69q-86 0 -146.5 -76t-60.5 -221z" />
<glyph unicode="&#xbb;" horiz-adv-x="1050" d="M35 197q154 123 272 282l70 88l-113 187q-76 129 -196 245q68 29 135 29q96 0 194 -174l154 -268l-129 -185q-170 -250 -266 -249q-60 0 -121 45zM451 197q154 125 270 282l70 88l-111 187q-84 141 -199 245q72 29 135 29q98 0 197 -174l152 -268l-127 -185 q-172 -250 -269 -249q-59 0 -118 45z" />
<glyph unicode="&#xbc;" horiz-adv-x="1660" d="M164 1382v62q115 53 280 53q49 0 68 -2q-14 -72 -14 -115v-530l180 -35v-18q-109 -63 -293 -64q-131 0 -215 21v28q170 39 170 170v443zM297 -78l1001 1675l86 -49l-1001 -1675zM844 166q0 168 152.5 344t355.5 229h71q-16 -123 -16 -235v-232h41q37 0 70 17 q10 -25 10 -53q0 -39 -20.5 -55.5t-67.5 -16.5h-35v-103l111 -28v-27q-72 -27 -181 -26q-113 0 -184 20v29q100 18 100 82v55h-407zM971 272h284v183q0 94 9 157l-2 2q-92 -45 -178 -147.5t-113 -194.5z" />
<glyph unicode="&#xbd;" horiz-adv-x="1660" d="M164 1382v62q115 53 280 53q49 0 68 -2q-14 -72 -14 -115v-530l180 -35v-18q-123 -74 -293 -74q-94 0 -215 31v28q170 39 170 170v443zM268 -78l1002 1675l86 -49l-1002 -1675zM913 78l299 239q131 104 131 203q0 59 -43 94t-116 35q-119 0 -228 -108q-18 39 -18 77 q0 53 70.5 92.5t208.5 39.5q147 0 224 -53.5t77 -141.5q0 -150 -199 -287l-225 -162h155q162 0 307 39q12 -31 13 -67q0 -45 -35 -64.5t-123 -19.5q-33 0 -213 3t-276 3z" />
<glyph unicode="&#xbe;" horiz-adv-x="1660" d="M100 831q0 29 21 60q115 -70 217 -70q82 0 137 37t55 90q0 51 -63.5 84t-187.5 33q-31 0 -74 -4l-17 92h62q104 -2 183 42t79 108q0 102 -147 102q-121 0 -218 -78q-18 31 -18 76q0 41 70.5 70.5t201.5 29.5q137 0 210 -48t73 -122q0 -70 -69.5 -127t-178.5 -76v-2 q129 0 199 -45t70 -118q0 -96 -103.5 -163t-255.5 -67q-246 0 -246 96zM287 -78l1001 1675l86 -49l-1001 -1675zM844 166q0 168 152.5 344t355.5 229h71q-16 -123 -16 -235v-232h41q37 0 70 17q10 -25 10 -53q0 -39 -20.5 -55.5t-67.5 -16.5h-35v-103l111 -28v-27 q-72 -27 -181 -26q-113 0 -184 20v29q100 18 100 82v55h-407zM971 272h284v183q0 94 9 157l-2 2q-92 -45 -178 -147.5t-113 -194.5z" />
<glyph unicode="&#xbf;" horiz-adv-x="1013" d="M72 297q0 98 73.5 197.5t292.5 273.5l142 113q-25 125 -91 241q39 10 62 11q70 0 120 -48.5t50 -121.5q0 -63 -33 -120t-123 -138l-151 -138q-131 -117 -131 -239q0 -94 59 -145.5t168 -51.5q88 0 176 62.5t137 154.5q41 -53 41 -131q0 -100 -97 -163.5t-294 -63.5 q-184 0 -292.5 83t-108.5 224zM469 1452q0 55 40 95t96.5 40t95 -40t38.5 -95t-38.5 -95t-95 -40t-96.5 40t-40 95z" />
<glyph unicode="&#xc0;" horiz-adv-x="1261" d="M-33 0v45q55 18 85 50t52 100l463 1292l164 20l430 -1403l121 -38v-50q-96 -39 -231 -39q-137 0 -244 23v45q137 29 108 127l-79 291h-471l-109 -365l139 -30v-52q-127 -39 -258 -39q-86 0 -170 23zM403 588h402l-184 674h-3zM438 1888q0 47 33 68.5t115 21.5 q20 -98 83.5 -221t125.5 -190l-21 -15q-80 0 -208 122t-128 214z" />
<glyph unicode="&#xc1;" horiz-adv-x="1261" d="M-33 0v45q55 18 85 50t52 100l463 1292l164 20l430 -1403l121 -38v-50q-96 -39 -231 -39q-137 0 -244 23v45q137 29 108 127l-79 291h-471l-109 -365l139 -30v-52q-127 -39 -258 -39q-86 0 -170 23zM403 588h402l-184 674h-3zM512 1567q59 68 122.5 190.5t84.5 220.5 q82 0 114.5 -21.5t32.5 -68.5q0 -92 -127 -214t-211 -122z" />
<glyph unicode="&#xc2;" horiz-adv-x="1261" d="M-33 0v45q55 18 85 50t52 100l463 1292l164 20l430 -1403l121 -38v-50q-96 -39 -231 -39q-137 0 -244 23v45q137 29 108 127l-79 291h-471l-109 -365l139 -30v-52q-127 -39 -258 -39q-86 0 -170 23zM317 1671l314 297l84 14l329 -360l-32 -33q-123 0 -228 107 q-74 74 -114 153l-264 -266q-58 33 -89 88zM403 588h402l-184 674h-3z" />
<glyph unicode="&#xc3;" horiz-adv-x="1261" d="M-33 0v45q55 18 85 50t52 100l463 1292l164 20l430 -1403l121 -38v-50q-96 -39 -231 -39q-137 0 -244 23v45q137 29 108 127l-79 291h-471l-109 -365l139 -30v-52q-127 -39 -258 -39q-86 0 -170 23zM305 1737q0 57 42 89t116 32q70 0 160 -27l112 -33q61 -18 113 -18 q41 0 77 34.5t36 79.5q57 -53 57 -122q0 -57 -48 -98.5t-116 -41.5q-74 0 -156 25l-114 35q-70 20 -115 20q-41 0 -72.5 -29.5t-31.5 -68.5q-60 47 -60 123zM403 588h402l-184 674h-3z" />
<glyph unicode="&#xc4;" horiz-adv-x="1261" d="M-33 0v45q55 18 85 50t52 100l463 1292l164 20l430 -1403l121 -38v-50q-96 -39 -231 -39q-137 0 -244 23v45q137 29 108 127l-79 291h-471l-109 -365l139 -30v-52q-127 -39 -258 -39q-86 0 -170 23zM354 1709q0 46 33 79t80 33t80 -33t33 -79t-33 -79t-80 -33t-80 33 t-33 79zM403 588h402l-184 674h-3zM719 1709q0 46 32.5 79t80 33t80 -33t32.5 -79t-32.5 -79t-80 -33t-80 33t-32.5 79z" />
<glyph unicode="&#xc5;" horiz-adv-x="1261" d="M-33 0v45q55 18 85 50t52 100l463 1292l164 20l430 -1403l121 -38v-50q-96 -39 -231 -39q-137 0 -244 23v45q137 29 108 127l-79 291h-471l-109 -365l139 -30v-52q-127 -39 -258 -39q-86 0 -170 23zM403 588h402l-184 674h-3zM428 1724q0 88 59.5 149.5t141.5 61.5 q88 0 148.5 -57t60.5 -147q0 -84 -60.5 -143.5t-144.5 -59.5q-86 0 -145.5 54t-59.5 142zM520 1729q0 -55 32 -89t79 -34q51 0 79.5 32.5t28.5 89t-29.5 93.5t-78.5 37t-80 -37t-31 -92z" />
<glyph unicode="&#xc6;" horiz-adv-x="1646" d="M-27 0v45q43 18 70 51t59 99l641 1290h791l-18 -344h-68l-8 43q-12 90 -54.5 127t-148.5 37h-233v-537h237q133 0 162 86l16 55h64v-440h-64l-12 53q-25 119 -119 119h-284v-547h278q92 0 142.5 31t86.5 96l23 43h65l-49 -307h-884v53q72 18 103.5 58.5t31.5 115.5v242 h-398l-157 -371l147 -30v-52q-127 -39 -258 -39q-78 0 -162 23zM453 588h348v747h-2z" />
<glyph unicode="&#xc7;" horiz-adv-x="1259" d="M100 698q0 356 208 584.5t495 228.5q225 0 346 -63l-19 -326h-63l-10 43q-27 109 -88.5 156t-184.5 47q-184 0 -319 -174t-135 -465q0 -305 127 -465t307 -160q127 0 198.5 43t108.5 138l25 55h61l-22 -307q-137 -70 -390 -72v-88q84 0 130.5 -36t46.5 -93 q0 -94 -93.5 -170t-207.5 -76q-82 0 -127 45t-45 127q98 -59 190 -59q57 0 93 28.5t36 61.5q0 84 -141 84l28 180q-242 25 -398.5 216t-156.5 517z" />
<glyph unicode="&#xc8;" horiz-adv-x="1093" d="M100 1432v53h881l-18 -344h-68l-8 43q-14 90 -56.5 127t-146.5 37h-233v-537h237q133 0 162 86l16 55h64v-440h-64l-12 53q-23 119 -119 119h-284v-547h278q92 0 142.5 31t84.5 96l25 43h66l-50 -307h-884v53q72 18 103.5 58.5t31.5 115.5v1141zM362 1888q0 47 33 68.5 t115 21.5q20 -98 82.5 -221t124.5 -190l-17 -15q-84 0 -211 122t-127 214z" />
<glyph unicode="&#xc9;" horiz-adv-x="1093" d="M100 1432v53h881l-18 -344h-68l-8 43q-14 90 -56.5 127t-146.5 37h-233v-537h237q133 0 162 86l16 55h64v-440h-64l-12 53q-23 119 -119 119h-284v-547h278q92 0 142.5 31t84.5 96l25 43h66l-50 -307h-884v53q72 18 103.5 58.5t31.5 115.5v1141zM489 1567 q61 68 125 190.5t84 220.5q82 0 116 -21.5t34 -68.5q0 -92 -127 -214t-211 -122z" />
<glyph unicode="&#xca;" horiz-adv-x="1093" d="M100 1432v53h881l-18 -344h-68l-8 43q-14 90 -56.5 127t-146.5 37h-233v-537h237q133 0 162 86l16 55h64v-440h-64l-12 53q-23 119 -119 119h-284v-547h278q92 0 142.5 31t84.5 96l25 43h66l-50 -307h-884v53q72 18 103.5 58.5t31.5 115.5v1141zM248 1669l313 297l84 14 l326 -360l-33 -33q-119 0 -225 105q-66 66 -113 155l-266 -266q-61 33 -86 88z" />
<glyph unicode="&#xcb;" horiz-adv-x="1093" d="M100 1432v53h881l-18 -344h-68l-8 43q-14 90 -56.5 127t-146.5 37h-233v-537h237q133 0 162 86l16 55h64v-440h-64l-12 53q-23 119 -119 119h-284v-547h278q92 0 142.5 31t84.5 96l25 43h66l-50 -307h-884v53q72 18 103.5 58.5t31.5 115.5v1141zM311 1760q0 46 33 79 t79 33t79 -33t33 -79t-33 -78.5t-79 -32.5t-79 32.5t-33 78.5zM674 1760q0 46 32.5 79t80 33t80 -33t32.5 -79t-32.5 -78.5t-80 -32.5t-80 32.5t-32.5 78.5z" />
<glyph unicode="&#xcc;" horiz-adv-x="696" d="M100 1411v51q139 37 269 37q125 0 217 -24v-43q-74 -20 -104.5 -59.5t-30.5 -108.5v-1160l147 -36v-52q-131 -39 -268 -39q-127 0 -217 23v45q135 39 135 178v1149zM147 1888q0 47 33 68.5t115 21.5q20 -98 82.5 -222t124.5 -189l-19 -17q-82 0 -209 122t-127 216z" />
<glyph unicode="&#xcd;" horiz-adv-x="696" d="M100 1411v51q139 37 269 37q125 0 217 -24v-43q-74 -20 -104.5 -59.5t-30.5 -108.5v-1160l147 -36v-52q-131 -39 -268 -39q-127 0 -217 23v45q135 39 135 178v1149zM201 1567q61 68 123.5 190.5t85.5 220.5q80 0 112.5 -21.5t32.5 -68.5q0 -92 -127 -214t-209 -122z" />
<glyph unicode="&#xce;" horiz-adv-x="696" d="M-10 1671l313 297l84 14l330 -360l-33 -33q-121 0 -227 107q-74 74 -113 153l-264 -266q-59 33 -90 88zM100 1411v51q139 37 269 37q125 0 217 -24v-43q-74 -20 -104.5 -59.5t-30.5 -108.5v-1160l147 -36v-52q-131 -39 -268 -39q-127 0 -217 23v45q135 39 135 178v1149z " />
<glyph unicode="&#xcf;" horiz-adv-x="696" d="M74 1760q0 46 32.5 79t79.5 33t80 -33t33 -79t-33 -78.5t-80 -32.5t-79.5 32.5t-32.5 78.5zM100 1411v51q139 37 269 37q125 0 217 -24v-43q-74 -20 -104.5 -59.5t-30.5 -108.5v-1160l147 -36v-52q-131 -39 -268 -39q-127 0 -217 23v45q135 39 135 178v1149zM438 1760 q0 46 33 79t80 33t80 -33t33 -79t-33 -78.5t-80 -32.5t-80 32.5t-33 78.5z" />
<glyph unicode="&#xd0;" horiz-adv-x="1488" d="M55 698v119h193v549l-148 49v51q195 33 473 33q375 0 595.5 -183t220.5 -515q0 -373 -246 -598.5t-604 -225.5q-262 0 -426 23v45q68 20 101.5 60t33.5 116v477h-193zM449 123q84 -8 114 -8q256 0 428 173t172 474q0 283 -167 442.5t-427 159.5q-57 0 -120 -8v-539h337 v-119h-337v-575z" />
<glyph unicode="&#xd1;" horiz-adv-x="1472" d="M100 1413v68q123 16 256 16h88l650 -1067l4 2v948l-150 37v49q131 39 234 39q113 0 196 -24v-43q-80 -25 -106.5 -68t-26.5 -151v-1223l-110 -27l-738 1217l-2 -2v-1080l142 -36v-52q-104 -39 -213 -39q-133 0 -211 23v45q76 20 105.5 64.5t29.5 140.5v1122zM436 1686 q0 55 41 89.5t117 34.5q61 0 160 -30l112 -31q61 -18 113 -18q41 0 76 34.5t35 79.5q59 -51 59 -125q0 -57 -48 -97t-116 -40q-74 0 -156 23l-114 34q-66 23 -115 23q-43 0 -73.5 -29.5t-30.5 -68.5q-60 47 -60 121z" />
<glyph unicode="&#xd2;" horiz-adv-x="1523" d="M100 702q0 354 210 582.5t495 228.5q264 0 441 -192.5t177 -509.5q0 -389 -203.5 -619.5t-498.5 -230.5q-266 0 -443.5 201.5t-177.5 539.5zM332 730q0 -292 120.5 -455.5t292.5 -163.5q184 0 317.5 169t133.5 488q0 289 -121 442.5t-295 153.5q-180 0 -314 -171 t-134 -463zM584 1888q0 47 33.5 68.5t115.5 21.5q20 -98 84 -221t123 -190l-18 -15q-84 0 -211 122t-127 214z" />
<glyph unicode="&#xd3;" horiz-adv-x="1523" d="M100 702q0 354 210 582.5t495 228.5q264 0 441 -192.5t177 -509.5q0 -389 -203.5 -619.5t-498.5 -230.5q-266 0 -443.5 201.5t-177.5 539.5zM332 730q0 -292 120.5 -455.5t292.5 -163.5q184 0 317.5 169t133.5 488q0 289 -121 442.5t-295 153.5q-180 0 -314 -171 t-134 -463zM600 1567q61 68 123.5 190.5t83.5 220.5q82 0 115.5 -21.5t33.5 -68.5q0 -92 -127 -214t-211 -122z" />
<glyph unicode="&#xd4;" horiz-adv-x="1523" d="M100 702q0 354 210 582.5t495 228.5q264 0 441 -192.5t177 -509.5q0 -389 -203.5 -619.5t-498.5 -230.5q-266 0 -443.5 201.5t-177.5 539.5zM332 730q0 -292 120.5 -455.5t292.5 -163.5q184 0 317.5 169t133.5 488q0 289 -121 442.5t-295 153.5q-180 0 -314 -171 t-134 -463zM444 1671l314 297l86 14l325 -360l-32 -33q-119 0 -226 107q-72 70 -112 153l-267 -266q-59 33 -88 88z" />
<glyph unicode="&#xd5;" horiz-adv-x="1523" d="M100 702q0 354 210 582.5t495 228.5q264 0 441 -192.5t177 -509.5q0 -389 -203.5 -619.5t-498.5 -230.5q-266 0 -443.5 201.5t-177.5 539.5zM332 730q0 -292 120.5 -455.5t292.5 -163.5q184 0 317.5 169t133.5 488q0 289 -121 442.5t-295 153.5q-180 0 -314 -171 t-134 -463zM444 1737q0 57 42 91t114 34q61 0 164 -31l108 -31q61 -18 113 -18q43 0 78 34.5t35 79.5q57 -51 57 -124q0 -57 -47 -97.5t-117 -40.5t-155 23l-113 35q-70 23 -117 22q-39 0 -71.5 -30.5t-32.5 -67.5q-58 49 -58 121z" />
<glyph unicode="&#xd6;" horiz-adv-x="1523" d="M100 702q0 354 210 582.5t495 228.5q264 0 441 -192.5t177 -509.5q0 -389 -203.5 -619.5t-498.5 -230.5q-266 0 -443.5 201.5t-177.5 539.5zM332 730q0 -292 120.5 -455.5t292.5 -163.5q184 0 317.5 169t133.5 488q0 289 -121 442.5t-295 153.5q-180 0 -314 -171 t-134 -463zM506 1711q0 46 32.5 79t80 33t80 -33t32.5 -79t-32.5 -79t-80 -33t-80 33t-32.5 79zM870 1711q0 46 33 79t80 33t80 -33t33 -79t-33 -79t-80 -33t-80 33t-33 79z" />
<glyph unicode="&#xd7;" d="M190 852l91 86l329 -332l326 332l86 -86l-328 -330l328 -325l-86 -86l-326 327l-329 -327l-86 88l327 323z" />
<glyph unicode="&#xd8;" horiz-adv-x="1523" d="M100 702q0 354 210 582.5t495 228.5q172 0 311 -86l125 209l78 -39l-133 -219q238 -197 237 -567q0 -389 -203.5 -619.5t-498.5 -230.5q-180 0 -328 96l-139 -227l-76 39l146 246q-224 204 -224 587zM332 731q0 -266 104 -432l584 971q-102 94 -240 94q-180 0 -314 -171 t-134 -462zM494 223q106 -113 251 -112q184 0 317.5 169t133.5 488q0 272 -115 434z" />
<glyph unicode="&#xd9;" horiz-adv-x="1480" d="M66 1411v51q141 37 266 37q119 0 221 -20v-47q-76 -18 -106.5 -58.5t-30.5 -126.5v-780q0 -162 92 -256t251 -94t252 102.5t93 308.5v844l-150 39v51q139 39 250 39q92 0 199 -26v-43q-76 -27 -105.5 -65t-29.5 -112v-700q0 -287 -147.5 -437.5t-387.5 -150.5 q-252 0 -385 120t-133 341v944zM528 1888q0 47 34 68.5t116 21.5q20 -98 82.5 -221t124.5 -190l-19 -15q-84 0 -211 122t-127 214z" />
<glyph unicode="&#xda;" horiz-adv-x="1480" d="M66 1411v51q141 37 266 37q119 0 221 -20v-47q-76 -18 -106.5 -58.5t-30.5 -126.5v-780q0 -162 92 -256t251 -94t252 102.5t93 308.5v844l-150 39v51q139 39 250 39q92 0 199 -26v-43q-76 -27 -105.5 -65t-29.5 -112v-700q0 -287 -147.5 -437.5t-387.5 -150.5 q-252 0 -385 120t-133 341v944zM602 1567q61 68 123.5 190.5t85.5 220.5q80 0 115 -21.5t35 -68.5q0 -92 -128 -214t-212 -122z" />
<glyph unicode="&#xdb;" horiz-adv-x="1480" d="M66 1411v51q141 37 266 37q119 0 221 -20v-47q-76 -18 -106.5 -58.5t-30.5 -126.5v-780q0 -162 92 -256t251 -94t252 102.5t93 308.5v844l-150 39v51q139 39 250 39q92 0 199 -26v-43q-76 -27 -105.5 -65t-29.5 -112v-700q0 -287 -147.5 -437.5t-387.5 -150.5 q-252 0 -385 120t-133 341v944zM389 1671l313 297l86 14l328 -360l-33 -33q-121 0 -227 107q-74 74 -113 153l-264 -266q-59 33 -90 88z" />
<glyph unicode="&#xdc;" horiz-adv-x="1480" d="M66 1411v51q141 37 266 37q119 0 221 -20v-47q-76 -18 -106.5 -58.5t-30.5 -126.5v-780q0 -162 92 -256t251 -94t252 102.5t93 308.5v844l-150 39v51q139 39 250 39q92 0 199 -26v-43q-76 -27 -105.5 -65t-29.5 -112v-700q0 -287 -147.5 -437.5t-387.5 -150.5 q-252 0 -385 120t-133 341v944zM477 1709q0 46 32 79t79 33t79.5 -33t32.5 -79t-32.5 -79t-79.5 -33t-79 33t-32 79zM840 1709q0 46 32.5 79t79.5 33t80 -33t33 -79t-33 -79t-80 -33t-79.5 33t-32.5 79z" />
<glyph unicode="&#xdd;" horiz-adv-x="1161" d="M-31 1415v49q119 37 236 37q106 0 219 -20v-45q-117 -33 -70 -138l262 -499h2l283 573l-139 41v49q125 37 242 37q90 0 161 -20v-45q-45 -18 -70.5 -49t-60.5 -99l-352 -624v-558l149 -36v-52q-135 -39 -274 -39q-121 0 -213 23v45q137 33 137 168v440l-385 725z M502 1567q61 68 123.5 190.5t85.5 220.5q80 0 114.5 -21.5t34.5 -68.5q0 -92 -128 -214t-212 -122z" />
<glyph unicode="&#xde;" horiz-adv-x="1222" d="M100 1411v51q139 37 260 37q123 0 218 -24v-43q-76 -20 -107 -59.5t-31 -108.5v-54h4q70 6 138 7q272 0 422.5 -114t150.5 -331q0 -221 -171 -373.5t-388 -152.5q-78 0 -152 37h-4v-179l148 -36v-52q-131 -39 -269 -39q-117 0 -206 23v45q135 39 135 178v1149zM440 403 q76 -18 150 -18q150 0 249 97.5t99 265.5q0 158 -100.5 247.5t-272.5 89.5q-61 0 -125 -6v-676z" />
<glyph unicode="&#xdf;" horiz-adv-x="1318" d="M104 946v76l127 51l2 209q0 172 125 284.5t349 112.5q205 0 327.5 -103t122.5 -265q0 -90 -55 -169t-123 -127t-124 -103.5t-56 -98.5q0 -61 35.5 -100t136.5 -80l112 -45q207 -84 207 -275q0 -150 -112.5 -250t-294.5 -100q-295 0 -295 199q0 35 10 94 q158 -154 322 -154q84 0 135 41t51 105q0 59 -38 103t-138 85l-101 41q-201 84 -200 277q0 70 54 142.5t121.5 124.5t123 122.5t55.5 136.5q0 127 -81 205t-212 78q-135 0 -206.5 -71t-71.5 -177q0 -27 3 -139.5t3 -143.5v-930l123 -30v-43q-106 -49 -258 -49 q-104 0 -177 20v39q53 18 89 53t36 74v780h-127z" />
<glyph unicode="&#xe0;" horiz-adv-x="1044" d="M78 223q0 162 164 271.5t442 109.5v64q0 182 -47 243.5t-160 61.5q-199 0 -350 -152q-8 35 -8 70q0 238 383 237q178 0 277.5 -83.5t99.5 -229.5q0 -31 -5.5 -125t-5.5 -110l-6 -379q25 -68 92 -119q-55 -68 -157 -119q-66 41 -109 115q-51 -49 -137 -81t-178 -32 q-129 0 -212 73.5t-83 184.5zM279 260q0 -74 46 -115t136 -41q119 0 223 64v328q-188 0 -296.5 -68t-108.5 -168zM356 1538q0 47 34 68.5t116 21.5q23 -98 85 -221t124 -190l-19 -15q-82 0 -211 122t-129 214z" />
<glyph unicode="&#xe1;" horiz-adv-x="1044" d="M78 223q0 162 164 271.5t442 109.5v64q0 182 -47 243.5t-160 61.5q-199 0 -350 -152q-8 35 -8 70q0 238 383 237q178 0 277.5 -83.5t99.5 -229.5q0 -31 -5.5 -125t-5.5 -110l-6 -379q25 -68 92 -119q-55 -68 -157 -119q-66 41 -109 115q-51 -49 -137 -81t-178 -32 q-129 0 -212 73.5t-83 184.5zM279 260q0 -74 46 -115t136 -41q119 0 223 64v328q-188 0 -296.5 -68t-108.5 -168zM397 1217q59 68 123 190.5t84 220.5q82 0 115 -21.5t33 -68.5q0 -92 -127 -214t-209 -122z" />
<glyph unicode="&#xe2;" horiz-adv-x="1044" d="M78 223q0 162 164 271.5t442 109.5v64q0 182 -47 243.5t-160 61.5q-199 0 -350 -152q-8 35 -8 70q0 238 383 237q178 0 277.5 -83.5t99.5 -229.5q0 -31 -5.5 -125t-5.5 -110l-6 -379q25 -68 92 -119q-55 -68 -157 -119q-66 41 -109 115q-51 -49 -137 -81t-178 -32 q-129 0 -212 73.5t-83 184.5zM143 1321l314 297l84 14l327 -360l-32 -33q-121 0 -226 107q-72 70 -112 153l-267 -266q-59 33 -88 88zM279 260q0 -74 46 -115t136 -41q119 0 223 64v328q-188 0 -296.5 -68t-108.5 -168z" />
<glyph unicode="&#xe3;" horiz-adv-x="1044" d="M78 223q0 162 164 271.5t442 109.5v64q0 182 -47 243.5t-160 61.5q-199 0 -350 -152q-8 35 -8 70q0 238 383 237q178 0 277.5 -83.5t99.5 -229.5q0 -31 -5.5 -125t-5.5 -110l-6 -379q25 -68 92 -119q-55 -68 -157 -119q-66 41 -109 115q-51 -49 -137 -81t-178 -32 q-129 0 -212 73.5t-83 184.5zM150 1386q0 57 41.5 89t113.5 32q68 0 164 -26l111 -33q59 -18 110 -18q43 0 78 34.5t35 79.5q59 -53 59 -123q0 -57 -48 -98t-116 -41q-76 0 -157 25l-111 36q-76 18 -118 18.5t-73.5 -29t-31.5 -68.5q-57 46 -57 122zM279 260q0 -74 46 -115 t136 -41q119 0 223 64v328q-188 0 -296.5 -68t-108.5 -168z" />
<glyph unicode="&#xe4;" horiz-adv-x="1044" d="M78 223q0 162 164 271.5t442 109.5v64q0 182 -47 243.5t-160 61.5q-199 0 -350 -152q-8 35 -8 70q0 238 383 237q178 0 277.5 -83.5t99.5 -229.5q0 -31 -5.5 -125t-5.5 -110l-6 -379q25 -68 92 -119q-55 -68 -157 -119q-66 41 -109 115q-51 -49 -137 -81t-178 -32 q-129 0 -212 73.5t-83 184.5zM229 1438q0 47 33 79.5t79 32.5t79 -32.5t33 -79.5t-33 -79t-79 -32t-79 32t-33 79zM279 260q0 -74 46 -115t136 -41q119 0 223 64v328q-188 0 -296.5 -68t-108.5 -168zM594 1438q0 47 31.5 79.5t79 32.5t80 -32.5t32.5 -79.5t-32.5 -79 t-80 -32t-79 32t-31.5 79z" />
<glyph unicode="&#xe5;" horiz-adv-x="1044" d="M78 223q0 162 164 271.5t442 109.5v64q0 182 -47 243.5t-160 61.5q-199 0 -350 -152q-8 35 -8 70q0 238 383 237q178 0 277.5 -83.5t99.5 -229.5q0 -31 -5.5 -125t-5.5 -110l-6 -379q25 -68 92 -119q-55 -68 -157 -119q-66 41 -109 115q-51 -49 -137 -81t-178 -32 q-129 0 -212 73.5t-83 184.5zM279 260q0 -74 46 -115t136 -41q119 0 223 64v328q-188 0 -296.5 -68t-108.5 -168zM311 1438q0 86 60.5 148.5t142.5 62.5q88 0 148.5 -57.5t60.5 -147.5q0 -86 -60.5 -146.5t-144.5 -60.5q-88 0 -147.5 56.5t-59.5 144.5zM406 1438 q0 -53 31.5 -87t78.5 -34q51 0 81 32.5t30 88.5q0 59 -31 95t-80 36t-79.5 -37t-30.5 -94z" />
<glyph unicode="&#xe6;" horiz-adv-x="1630" d="M78 223q0 162 164 271.5t442 109.5v64q0 182 -47 243.5t-160 61.5q-199 0 -350 -152q-8 35 -8 70q0 238 383 237q242 0 327 -157q137 158 322 157q188 0 295.5 -116.5t107.5 -321.5q0 -90 -2 -149h-688q0 -190 98.5 -301t247.5 -111q180 0 328 100q10 -25 10 -61 q0 -82 -110.5 -142.5t-290.5 -60.5q-231 0 -367 180q-84 -82 -195.5 -131t-211.5 -49q-129 0 -212 73.5t-83 184.5zM279 260q0 -74 46 -115t132 -41q66 0 145.5 31t134.5 76q-68 127 -67 285q-184 -2 -287.5 -71t-103.5 -165zM868 664h500q0 166 -64.5 251.5t-170.5 85.5 q-98 0 -181.5 -101t-83.5 -236z" />
<glyph unicode="&#xe7;" horiz-adv-x="940" d="M88 502q0 283 156.5 452.5t392.5 169.5q252 0 252 -137q0 -57 -27 -121q-135 106 -272 107q-125 0 -212 -117t-87 -311q0 -201 94 -309.5t236 -108.5q141 0 266 92q12 -23 12 -57q0 -78 -75.5 -131.5t-211.5 -63.5v-88q84 0 130 -37t46 -94q0 -94 -93 -170t-208 -76 q-82 0 -127 46t-45 128q98 -61 191 -61q57 0 93 28.5t36 61.5q0 84 -141 84l28 178q-184 14 -309 162t-125 373z" />
<glyph unicode="&#xe8;" horiz-adv-x="1056" d="M88 500q0 289 146.5 458.5t343.5 169.5q188 0 295.5 -116.5t107.5 -321.5q0 -90 -2 -149h-690q0 -190 98 -301t248 -111q182 0 330 100q8 -25 8 -61q0 -82 -110.5 -142.5t-291.5 -60.5q-205 0 -344 147.5t-139 387.5zM295 664h500q0 166 -64.5 251.5t-173.5 85.5 q-96 0 -179 -101t-83 -236zM412 1538q0 47 32.5 68.5t112.5 21.5q23 -98 85.5 -221t123.5 -190l-16 -15q-84 0 -211 122t-127 214z" />
<glyph unicode="&#xe9;" horiz-adv-x="1056" d="M88 500q0 289 146.5 458.5t343.5 169.5q188 0 295.5 -116.5t107.5 -321.5q0 -90 -2 -149h-690q0 -190 98 -301t248 -111q182 0 330 100q8 -25 8 -61q0 -82 -110.5 -142.5t-291.5 -60.5q-205 0 -344 147.5t-139 387.5zM295 664h500q0 166 -64.5 251.5t-173.5 85.5 q-96 0 -179 -101t-83 -236zM477 1217q59 68 123 190.5t84 220.5q82 0 116 -21.5t34 -68.5q0 -92 -127 -214t-211 -122z" />
<glyph unicode="&#xea;" horiz-adv-x="1056" d="M88 500q0 289 146.5 458.5t343.5 169.5q188 0 295.5 -116.5t107.5 -321.5q0 -90 -2 -149h-690q0 -190 98 -301t248 -111q182 0 330 100q8 -25 8 -61q0 -82 -110.5 -142.5t-291.5 -60.5q-205 0 -344 147.5t-139 387.5zM211 1321l311 297l84 14l328 -360l-33 -33 q-119 0 -227 107q-70 70 -111 153l-266 -266q-61 33 -86 88zM295 664h500q0 166 -64.5 251.5t-173.5 85.5q-96 0 -179 -101t-83 -236z" />
<glyph unicode="&#xeb;" horiz-adv-x="1056" d="M88 500q0 289 146.5 458.5t343.5 169.5q188 0 295.5 -116.5t107.5 -321.5q0 -90 -2 -149h-690q0 -190 98 -301t248 -111q182 0 330 100q8 -25 8 -61q0 -82 -110.5 -142.5t-291.5 -60.5q-205 0 -344 147.5t-139 387.5zM254 1438q0 47 32.5 79.5t80 32.5t80 -32.5 t32.5 -79.5t-32.5 -79t-80 -32t-80 32t-32.5 79zM295 664h500q0 166 -64.5 251.5t-173.5 85.5q-96 0 -179 -101t-83 -236zM618 1438q0 47 33 79.5t80 32.5t80 -32.5t33 -79.5t-33 -79t-80 -32t-80 32t-33 79z" />
<glyph unicode="&#xec;" horiz-adv-x="634" d="M84 1018v49q154 45 278 45h74l-12 -127v-887l131 -35v-45q-111 -39 -270 -38q-104 0 -174 20v39q123 47 122 127v788zM154 1538q0 47 33.5 68.5t115.5 21.5q20 -98 84 -221t125 -190l-18 -15q-84 0 -212 122t-128 214z" />
<glyph unicode="&#xed;" horiz-adv-x="634" d="M84 1018v49q154 45 278 45h74l-12 -127v-887l131 -35v-45q-111 -39 -270 -38q-104 0 -174 20v39q123 47 122 127v788zM186 1217q61 68 124 190.5t85 220.5q84 0 117 -21.5t33 -68.5q0 -92 -128 -214t-212 -122z" />
<glyph unicode="&#xee;" horiz-adv-x="634" d="M-31 1321l314 297l84 14l329 -360l-32 -33q-123 0 -230 107q-74 78 -112 153l-267 -266q-55 31 -86 88zM84 1018v49q154 45 278 45h74l-12 -127v-887l131 -35v-45q-111 -39 -270 -38q-104 0 -174 20v39q123 47 122 127v788z" />
<glyph unicode="&#xef;" horiz-adv-x="634" d="M14 1438q0 47 33 79.5t79 32.5t79 -32.5t33 -79.5t-33 -79t-79 -32t-79 32t-33 79zM84 1018v49q154 45 278 45h74l-12 -127v-887l131 -35v-45q-111 -39 -270 -38q-104 0 -174 20v39q123 47 122 127v788zM379 1438q0 47 32.5 79.5t79 32.5t79 -32.5t32.5 -79.5t-32.5 -79 t-79 -32t-79 32t-32.5 79z" />
<glyph unicode="&#xf0;" horiz-adv-x="1271" d="M94 502q0 279 162 453.5t383 174.5q158 0 272 -100l4 2q-78 240 -221 373l-280 -168l-58 90l246 148q-109 66 -217 65q-113 0 -233 -59q-12 47 -13 71q0 53 65.5 89t205.5 36q178 0 340 -112l221 135l57 -92l-190 -113q313 -297 313 -881q0 -297 -164 -474t-385 -177 q-219 0 -363.5 145.5t-144.5 393.5zM305 524q0 -203 90 -314.5t221.5 -111.5t226.5 124t95 358q0 156 -25 303q-53 49 -135 80.5t-155 31.5q-127 0 -222.5 -125t-95.5 -346z" />
<glyph unicode="&#xf1;" horiz-adv-x="1284" d="M82 1018v51q150 43 280 43h56v-127q131 131 346 131q150 0 238 -94t88 -270v-654l122 -35v-45q-98 -39 -245 -38q-90 0 -152 20v39q84 39 84 156v444q0 315 -233 315q-147 0 -242 -71v-785l131 -35v-45q-111 -39 -270 -38q-104 0 -174 20v39q51 18 86.5 53t35.5 74v788z M287 1386q0 57 41 89t116 32q70 0 160 -26l113 -33q61 -18 112 -18q41 0 76 34.5t35 79.5q59 -53 59 -123q0 -57 -48 -98t-115 -41q-80 0 -156 25l-115 36q-70 18 -114 19q-41 0 -73 -29.5t-32 -68.5q-59 46 -59 122z" />
<glyph unicode="&#xf2;" horiz-adv-x="1243" d="M94 502q0 279 162 453.5t387 174.5q219 0 363.5 -149.5t144.5 -390.5q0 -276 -164 -451.5t-383 -175.5t-364.5 145.5t-145.5 393.5zM305 524q0 -203 90 -314.5t223 -111.5q129 0 224.5 124t95.5 347q0 197 -91 311.5t-221 114.5t-225.5 -125t-95.5 -346zM410 1538 q0 47 33.5 68.5t113.5 21.5q23 -98 85.5 -221t123.5 -190l-18 -15q-84 0 -211 122t-127 214z" />
<glyph unicode="&#xf3;" horiz-adv-x="1243" d="M94 502q0 279 162 453.5t387 174.5q219 0 363.5 -149.5t144.5 -390.5q0 -276 -164 -451.5t-383 -175.5t-364.5 145.5t-145.5 393.5zM305 524q0 -203 90 -314.5t223 -111.5q129 0 224.5 124t95.5 347q0 197 -91 311.5t-221 114.5t-225.5 -125t-95.5 -346zM520 1217 q61 68 124 190.5t85 220.5q82 0 115 -21.5t33 -68.5q0 -92 -128 -214t-210 -122z" />
<glyph unicode="&#xf4;" horiz-adv-x="1243" d="M94 502q0 279 162 453.5t387 174.5q219 0 363.5 -149.5t144.5 -390.5q0 -276 -164 -451.5t-383 -175.5t-364.5 145.5t-145.5 393.5zM270 1321l314 297l84 14l329 -360l-32 -33q-121 0 -230 107q-74 78 -112 153l-267 -266q-55 31 -86 88zM305 524q0 -203 90 -314.5 t223 -111.5q129 0 224.5 124t95.5 347q0 197 -91 311.5t-221 114.5t-225.5 -125t-95.5 -346z" />
<glyph unicode="&#xf5;" horiz-adv-x="1243" d="M94 502q0 279 162 453.5t387 174.5q219 0 363.5 -149.5t144.5 -390.5q0 -276 -164 -451.5t-383 -175.5t-364.5 145.5t-145.5 393.5zM279 1386q0 57 41.5 89t113.5 32q70 0 164 -26l109 -33q61 -18 112 -18q43 0 78 34.5t35 79.5q57 -53 57 -123q0 -57 -47 -98t-115 -41 q-76 0 -157 25l-113 36q-74 18 -116 18.5t-73.5 -29t-31.5 -68.5q-57 46 -57 122zM305 524q0 -203 90 -314.5t223 -111.5q129 0 224.5 124t95.5 347q0 197 -91 311.5t-221 114.5t-225.5 -125t-95.5 -346z" />
<glyph unicode="&#xf6;" horiz-adv-x="1243" d="M94 502q0 279 162 453.5t387 174.5q219 0 363.5 -149.5t144.5 -390.5q0 -276 -164 -451.5t-383 -175.5t-364.5 145.5t-145.5 393.5zM305 524q0 -203 90 -314.5t223 -111.5q129 0 224.5 124t95.5 347q0 197 -91 311.5t-221 114.5t-225.5 -125t-95.5 -346zM354 1438 q0 47 33 79.5t80 32.5t80 -32.5t33 -79.5t-33 -79t-80 -32t-80 32t-33 79zM719 1438q0 47 32.5 79.5t80 32.5t80 -32.5t32.5 -79.5t-32.5 -79t-80 -32t-80 32t-32.5 79z" />
<glyph unicode="&#xf7;" d="M115 467v119h983v-119h-983zM500 87q0 44 33.5 80t80.5 36q41 0 69 -32t28 -77q0 -43 -33 -77.5t-76 -34.5q-47 0 -74.5 30.5t-27.5 74.5zM500 950q0 45 33.5 81t80.5 36q41 0 69 -31.5t28 -79.5q0 -41 -33 -74.5t-76 -33.5q-47 0 -74.5 28.5t-27.5 73.5z" />
<glyph unicode="&#xf8;" horiz-adv-x="1243" d="M94 502q0 279 162 453.5t387 174.5q125 0 234 -53l120 203l76 -39l-125 -211q203 -154 203 -440q0 -276 -164 -451.5t-383 -175.5q-137 0 -256 64l-117 -199l-77 39l125 205q-185 156 -185 430zM305 524q0 -176 72 -286l414 698q-76 59 -164 59q-131 0 -226.5 -125 t-95.5 -346zM434 168q78 -70 184 -70q129 0 224.5 124t95.5 347q0 186 -86 303z" />
<glyph unicode="&#xf9;" horiz-adv-x="1239" d="M78 1020v49q154 45 260 45h78l-15 -131v-528q0 -176 55.5 -250t172.5 -74q125 0 227 68v755l-135 66v49q158 45 264 45h78l-14 -131v-788q20 -49 88 -123q-55 -59 -158 -109q-78 53 -111 135q-51 -47 -143 -86t-193 -39q-322 0 -321 383v598zM455 1538q0 47 33.5 68.5 t115.5 21.5q23 -98 85.5 -221t123.5 -190l-18 -15q-82 0 -211 122t-129 214z" />
<glyph unicode="&#xfa;" horiz-adv-x="1239" d="M78 1020v49q154 45 260 45h78l-15 -131v-528q0 -176 55.5 -250t172.5 -74q125 0 227 68v755l-135 66v49q158 45 264 45h78l-14 -131v-788q20 -49 88 -123q-55 -59 -158 -109q-78 53 -111 135q-51 -47 -143 -86t-193 -39q-322 0 -321 383v598zM483 1217q61 68 124 190.5 t83 220.5q82 0 116 -21.5t34 -68.5q0 -92 -128 -214t-210 -122z" />
<glyph unicode="&#xfb;" horiz-adv-x="1239" d="M78 1020v49q154 45 260 45h78l-15 -131v-528q0 -176 55.5 -250t172.5 -74q125 0 227 68v755l-135 66v49q158 45 264 45h78l-14 -131v-788q20 -49 88 -123q-55 -59 -158 -109q-78 53 -111 135q-51 -47 -143 -86t-193 -39q-322 0 -321 383v598zM285 1321l313 297l84 14 l326 -360l-31 -33q-121 0 -227 107q-70 70 -113 153l-266 -266q-55 31 -86 88z" />
<glyph unicode="&#xfc;" horiz-adv-x="1239" d="M78 1020v49q154 45 260 45h78l-15 -131v-528q0 -176 55.5 -250t172.5 -74q125 0 227 68v755l-135 66v49q158 45 264 45h78l-14 -131v-788q20 -49 88 -123q-55 -59 -158 -109q-78 53 -111 135q-51 -47 -143 -86t-193 -39q-322 0 -321 383v598zM336 1438q0 47 32.5 79.5 t80 32.5t80 -32.5t32.5 -79.5t-32.5 -79t-80 -32t-80 32t-32.5 79zM700 1438q0 47 33 79.5t80 32.5t79 -32.5t32 -79.5t-32 -79t-79 -32t-80 32t-33 79z" />
<glyph unicode="&#xfd;" horiz-adv-x="929" d="M-66 -389q45 -10 105 -10q82 0 175 93t163 271l39 105l-369 917l-90 68v57h430v-57l-125 -56l248 -712h2l221 704l-131 64v57h350v-57l-57 -51l-330 -910q-127 -354 -255 -509.5t-232 -155.5q-74 0 -109 41t-35 141zM344 1217q59 70 123.5 192.5t83.5 218.5 q84 0 116.5 -21.5t32.5 -68.5q0 -92 -127 -214t-211 -122z" />
<glyph unicode="&#xfe;" horiz-adv-x="1220" d="M70 1583v51q145 43 280 43h72l-10 -131v-540q121 117 295 116q184 0 305 -129t121 -360q0 -311 -166 -485.5t-404 -174.5q-86 0 -149 29v-457l153 -32v-48q-115 -37 -295 -36q-104 0 -174 20v39q51 16 87 50t36 77v1905zM412 121q55 -16 149 -17q166 0 268.5 118 t102.5 358q0 182 -89 284.5t-216 102.5t-215 -54v-792z" />
<glyph unicode="&#xff;" horiz-adv-x="929" d="M-66 -389q45 -10 105 -10q82 0 175 93t163 271l39 105l-369 917l-90 68v57h430v-57l-125 -56l248 -712h2l221 704l-131 64v57h350v-57l-57 -51l-330 -910q-127 -354 -255 -509.5t-232 -155.5q-74 0 -109 41t-35 141zM197 1438q0 47 32.5 79.5t78.5 32.5t79 -32.5 t33 -79.5t-33 -79t-79 -32t-78.5 32t-32.5 79zM561 1438q0 47 33 79.5t79 32.5t78.5 -32.5t32.5 -79.5t-32.5 -79t-78.5 -32t-79 32t-33 79z" />
<glyph unicode="&#x152;" horiz-adv-x="1820" d="M100 702q0 350 210 580.5t493 230.5q100 0 184 -28h719l-18 -344h-68l-6 43q-14 90 -56 127t-147 37h-233v-537h237q133 0 162 86l14 55h64v-440h-64l-10 53q-27 119 -119 119h-284v-547h276q94 0 144.5 31t84.5 96l23 43h66l-50 -307h-759q-127 -39 -242 -39 q-266 0 -443.5 201.5t-177.5 539.5zM332 731q0 -293 120.5 -454.5t292.5 -161.5q115 0 228 69v1119q-92 55 -191 55q-184 0 -317 -170t-133 -457z" />
<glyph unicode="&#x153;" horiz-adv-x="1906" d="M94 502q0 279 162 453.5t387 174.5q285 0 414 -227q66 109 163 167t207 58q188 0 296 -116.5t108 -321.5q0 -90 -2 -149h-690q0 -190 98 -301t248 -111q182 0 330 100q8 -25 8 -61q0 -82 -110.5 -142.5t-291.5 -60.5q-127 0 -230.5 61.5t-162.5 172.5 q-156 -236 -424 -236q-219 0 -364.5 145.5t-145.5 393.5zM305 524q0 -203 90 -314.5t223 -111.5q129 0 224.5 124t95.5 347q0 197 -91 311.5t-221 114.5t-225.5 -125t-95.5 -346zM1145 664h500q0 166 -64.5 251.5t-173.5 85.5q-96 0 -179 -101t-83 -236z" />
<glyph unicode="&#x178;" horiz-adv-x="1161" d="M-31 1415v49q119 37 236 37q106 0 219 -20v-45q-117 -33 -70 -138l262 -499h2l283 573l-139 41v49q125 37 242 37q90 0 161 -20v-45q-45 -18 -70.5 -49t-60.5 -99l-352 -624v-558l149 -36v-52q-135 -39 -274 -39q-121 0 -213 23v45q137 33 137 168v440l-385 725z M307 1691q0 46 33 78.5t80 32.5t79.5 -32.5t32.5 -78.5t-32.5 -79t-79.5 -33t-80 33t-33 79zM672 1691q0 46 32.5 78.5t79.5 32.5t80 -32.5t33 -78.5t-33 -79t-80 -33t-79.5 33t-32.5 79z" />
<glyph unicode="&#x2c6;" horiz-adv-x="1050" d="M176 1321l311 297l84 14l330 -360l-33 -33q-121 0 -225 107q-76 74 -115 153l-264 -266q-59 33 -88 88z" />
<glyph unicode="&#x2dc;" horiz-adv-x="1050" d="M170 1386q0 57 41 89t117 32q70 0 159 -26l113 -33q61 -18 113 -18q41 0 75.5 34.5t34.5 79.5q59 -53 60 -123q0 -57 -48.5 -98t-115.5 -41q-74 0 -156 25l-114 36q-70 18 -115 19q-43 0 -74 -29.5t-31 -68.5q-59 46 -59 122z" />
<glyph unicode="&#x2013;" horiz-adv-x="1167" d="M0 467v119h1167v-119h-1167z" />
<glyph unicode="&#x2014;" horiz-adv-x="2334" d="M0 467v119h2335v-119h-2335z" />
<glyph unicode="&#x2018;" horiz-adv-x="589" d="M139 1221q0 150 95.5 276.5t181.5 153.5l63 -17q-145 -152 -145 -340l82 -104q-66 -102 -150 -103q-55 0 -91 37.5t-36 96.5z" />
<glyph unicode="&#x2019;" horiz-adv-x="589" d="M113 1096q143 152 143 340l-80 102q63 102 148 102q57 0 92 -35.5t35 -97.5q0 -150 -94.5 -276.5t-180.5 -151.5z" />
<glyph unicode="&#x201a;" horiz-adv-x="589" d="M113 -291q143 152 143 340l-80 103q63 102 148 102q57 0 92 -36t35 -97q0 -150 -94.5 -277t-180.5 -151z" />
<glyph unicode="&#x201c;" horiz-adv-x="929" d="M106 1221q0 150 95.5 276.5t181.5 153.5l63 -17q-145 -152 -145 -340l82 -104q-66 -102 -150 -103q-55 0 -91 37.5t-36 96.5zM481 1221q0 150 94.5 276.5t180.5 153.5l63 -17q-145 -152 -145 -340l82 -104q-66 -102 -150 -103q-55 0 -90 37.5t-35 96.5z" />
<glyph unicode="&#x201d;" horiz-adv-x="929" d="M113 1096q143 152 143 340l-80 102q63 102 148 102q57 0 92 -35.5t35 -97.5q0 -150 -94.5 -276.5t-180.5 -151.5zM465 1096q145 152 145 340l-82 102q66 102 150 102q55 0 90 -35.5t35 -97.5q0 -150 -94.5 -276.5t-180.5 -151.5z" />
<glyph unicode="&#x201e;" horiz-adv-x="929" d="M113 -291q143 152 143 340l-80 103q63 102 148 102q57 0 92 -36t35 -97q0 -150 -94.5 -277t-180.5 -151zM465 -291q145 152 145 340l-82 103q66 102 150 102q55 0 90 -36t35 -97q0 -150 -94.5 -277t-180.5 -151z" />
<glyph unicode="&#x2022;" horiz-adv-x="841" d="M139 616.5q0 118.5 82 203.5t201 85q117 0 198.5 -85t81.5 -203.5t-81.5 -203.5t-198.5 -85q-119 0 -201 85t-82 203.5z" />
<glyph unicode="&#x2026;" horiz-adv-x="1536" d="M184 109.5q0 56.5 40 96.5t96.5 40t95.5 -40t39 -96.5t-39 -96.5t-95.5 -40t-96.5 40t-40 96.5zM653 109.5q0 56.5 40 96.5t96.5 40t95.5 -40t39 -96.5t-39 -96.5t-95.5 -40t-96.5 40t-40 96.5zM1120 109.5q0 56.5 40 96.5t96.5 40t95.5 -40t39 -96.5t-39 -96.5 t-95.5 -40t-96.5 40t-40 96.5z" />
<glyph unicode="&#x2039;" horiz-adv-x="634" d="M86 590l127 184q170 250 268 250q59 0 119 -43q-143 -117 -272 -283l-68 -88l111 -188q84 -139 198 -244q-72 -29 -135 -28q-98 0 -196 172z" />
<glyph unicode="&#x203a;" horiz-adv-x="634" d="M37 197q154 123 274 282l68 88l-113 187q-82 135 -196 245q68 29 135 29q96 0 194 -174l154 -268l-129 -185q-170 -250 -264 -249q-62 0 -123 45z" />
<glyph unicode="&#x20ac;" d="M20 782v97l142 6q53 283 246.5 454.5t439.5 171.5q193 0 317 -63l-18 -326h-64l-10 43q-51 203 -244 203q-156 0 -280.5 -126t-161.5 -343l660 37l-9 -90l-661 -43q-4 -23 -4 -74q0 -39 6 -102l672 39l-7 -93l-655 -41q39 -211 156 -319.5t262 -108.5q117 0 180.5 42 t99.5 139l25 55h62l-23 -307q-139 -72 -379 -72q-231 0 -400 145.5t-212 411.5l-133 -6v94l120 8q-2 25 -2 84q0 31 5 90z" />
<glyph unicode="&#x2122;" horiz-adv-x="1763" d="M82 1290v191q88 -2 313 -2q188 0 310 8v-197h-50l-4 37q-6 63 -78 64h-106v-562l94 -18v-41q-96 -25 -178 -25q-68 0 -137 19v35q74 18 73 71v521h-81q-82 0 -101 -68l-8 -33h-47zM717 764v35q37 8 53 23.5t21 47.5l90 549l-76 19v41q49 6 160 6h73l152 -537l4 2l158 535 h61q109 0 158 -6v-41l-74 -19l92 -600l76 -18v-31q-61 -25 -141 -25q-68 0 -146 19v35q35 8 46.5 22.5t9.5 48.5l-56 473l-4 -4l-170 -589l-74 -13l-180 611l-2 -2l-53 -527l72 -18v-31q-59 -25 -129 -25q-60 1 -121 19z" />
<glyph unicode="&#xe000;" horiz-adv-x="1110" d="M0 1110h1110v-1110h-1110v1110z" />
<glyph unicode="&#xfb01;" horiz-adv-x="1302" d="M102 946v82l129 51v183q-2 188 127 301.5t390 113.5q174 0 240.5 -28.5t66.5 -83.5q0 -59 -23 -107q-170 80 -383 80q-236 0 -235 -266q0 -125 8 -201h344q154 41 264 41h74l-10 -127v-887l129 -35v-45q-111 -39 -271 -38q-104 0 -174 20v39q123 47 123 127v790h-481 v-858l149 -35v-45q-113 -39 -286 -38q-104 0 -177 20v39q53 18 89 53t36 74v780h-129z" />
<glyph unicode="&#xfb02;" horiz-adv-x="1298" d="M102 946v82l129 51v152q0 207 117 326.5t336 119.5q80 0 176 -37q102 37 176 37h76l-12 -131v-1448l131 -35v-45q-113 -39 -270 -38q-106 0 -177 20v39q51 18 87 53t36 74v1329q-109 43 -305 43q-188 0 -188 -274q0 -98 8 -193h295l-27 -125h-270v-848l149 -35v-45 q-113 -39 -286 -38q-104 0 -177 20v39q53 18 89 53t36 74v780h-129z" />
<glyph unicode="&#xfb03;" horiz-adv-x="1998" d="M102 946v82l129 51v172q-2 188 117 307t324 119q225 0 225 -110q0 -37 -12 -78q-135 47 -297 47q-74 0 -124 -67.5t-50 -186.5q0 -109 8 -211h508v191q-2 190 127 302.5t389 112.5q174 0 239.5 -28.5t65.5 -83.5q0 -63 -20 -107q-170 80 -383 80q-236 0 -236 -266 q0 -125 8 -201h344q154 41 265 41h73l-12 -127v-887l131 -35v-45q-111 -39 -270 -38q-104 0 -176 20v39q125 47 124 127v790h-481v-858l150 -35v-45q-113 -39 -287 -38q-104 0 -176 20v39q51 18 88 53t37 74v790h-510v-858l149 -35v-45q-113 -39 -286 -38q-104 0 -177 20v39 q53 18 89 53t36 74v780h-129z" />
<glyph unicode="&#xfb04;" horiz-adv-x="1996" d="M102 946v82l129 51v172q-2 188 117 307t324 119q225 0 225 -110q0 -37 -12 -78q-135 47 -297 47q-74 0 -124 -67.5t-50 -186.5q0 -109 8 -211h508v160q0 207 116.5 326.5t335.5 119.5q80 0 174 -37q100 37 179 37h75l-12 -131v-1448l131 -35v-45q-113 -39 -272 -38 q-104 0 -174 20v39q51 18 87 53t36 74v1220l-2 111q-125 41 -304 41q-188 0 -188 -274q0 -98 8 -193h291l-27 -123h-266v-850l150 -35v-45q-113 -39 -287 -38q-104 0 -176 20v39q51 18 88 53t37 74v790h-510v-858l149 -35v-45q-113 -39 -286 -38q-104 0 -177 20v39 q53 18 89 53t36 74v780h-129z" />
<glyph horiz-adv-x="401" />
</font>
</defs>
</svg>
